<?xml version="1.0" encoding="UTF-8"?>
<svg id="Layer_2" data-name="Layer 2" xmlns="http://www.w3.org/2000/svg" viewBox="0 0 1519.89 334.63">
  <defs>
    <style>
      .cls-1 {
        fill: none;
        stroke-width: 3px;
      }

      .cls-1, .cls-2 {
        stroke: #fff;
        stroke-miterlimit: 10;
      }

      .cls-3 {
        fill: #fff;
      }

      .cls-2 {
        stroke-width: 4px;
      }
    </style>
  </defs>
  <g id="Layer_1-2" data-name="Layer 1">
    <g>
      <path class="cls-2" d="m746.41,229.35c-6.15-.03-11.72-.05-17.29-.07.02-4.25.03-8,.05-12.25,9.87.04,19.43.08,29,.12,0-2.35.02-4.18.03-6.38-14.32-.06-28.34-.11-42.36-.18-13.98-.06-27.96-.14-42.01-.21-.59-5.85.27-11.18-.48-16.32-28.7-.12-57.01-.24-85.83-.36-.02,5.57-.05,10.84-.07,16.53-29.37-.12-58.22-.24-87.39-.36.12,2.31.22,4.16.33,6.24,10.79.35,21.18-.22,31.57.46-.02,4.26-.03,7.92-.05,12.04-5.77-.02-11.34-.05-17.24-.07-.53,15.33-.05,30.23-.56,45.51l232.11.7c.06-15.15.13-30.04.19-45.4Zm-56.65-11.77c-.02,3.93-.03,7.7-.05,11.74-8.1-.03-16.01-.07-24.23-.1.02-4.12.03-7.77.05-11.74,8.17.03,16.07.07,24.23.1Zm-31.73-.1c-.02,3.94-.03,7.57-.05,11.71-8.01.35-15.89.19-24.13.03.02-4.22.03-7.88.05-11.84,8.07.03,15.95.07,24.13.1Zm-31.47-.26c.54,3.89.33,7.75.09,11.86-8.24-.03-16.14-.07-24.33-.1.02-3.82.03-7.57.05-11.86,8.14.03,15.92.07,24.19.1Zm-55.79-.14c7.83.03,15.73.07,24.11.1-.02,4.06-.03,7.7-.05,11.67-8.05-.03-15.94-.07-24.11-.1.02-3.78.03-7.56.05-11.67Zm130.51,46.89c-3.58.06-7.15-.03-10.73-.04-45.55-.19-91.1-.37-136.64-.55-1.37,0-2.78.11-4.11-.17-.58-.12-.98-1.08-1.46-1.66.15-.3.3-.61.45-.91,51.15.21,102.29.42,153.44.67.72,0,1.44.48,2.17.74.05.42.1.84.14,1.26-1.09.23-2.17.64-3.26.66Z"/>
      <path class="cls-2" d="m418.09,160.72c4.85.06,10.12,7.1,8.59,17.37l-17.58-.2c-.94-9.93,4.14-17.22,8.99-17.16Zm-.17,23.7c4.85.06,10.12,7.1,8.59,17.37l-17.58-.2c-.94-9.93,4.14-17.22,8.99-17.16Zm-.27,23.62c4.85.06,10.12,7.1,8.59,17.37l-17.58-.2c-.94-9.93,4.14-17.22,8.99-17.16Zm-.19,25.39c4.85.06,10.12,7.1,8.59,17.37l-17.58-.2c-.94-9.93,4.14-17.22,8.99-17.16Zm-.75,25.72c4.85.06,10.12,7.1,8.59,17.37l-17.58-.2c-.94-9.93,4.14-17.22,8.99-17.16Zm8.39,43.6l-17.58-.2c-.94-9.93,4.14-17.22,8.99-17.16,4.85.06,10.12,7.1,8.59,17.37Zm30.36-141.73c4.85.06,10.12,7.1,8.59,17.37l-17.58-.2c-.94-9.93,4.14-17.22,8.99-17.16Zm-.17,23.7c4.85.06,10.12,7.1,8.59,17.37l-17.58-.2c-.94-9.93,4.14-17.22,8.99-17.16Zm-.27,23.62c4.85.06,10.12,7.1,8.59,17.37l-17.58-.2c-.94-9.93,4.14-17.22,8.99-17.16Zm-.19,25.39c4.85.06,10.12,7.1,8.59,17.37l-17.58-.2c-.94-9.93,4.14-17.22,8.99-17.16Zm-.75,25.72c4.85.06,10.12,7.1,8.59,17.37l-17.58-.2c-.94-9.93,4.14-17.22,8.99-17.16Zm8.39,43.6l-17.58-.2c-.94-9.93,4.14-17.22,8.99-17.16,4.85.06,10.12,7.1,8.59,17.37Z"/>
      <g>
        <path class="cls-2" d="m1.64,284.25c2.37.01,4.43.02,6.78.04,0,0,0,0,0,0l-6.78-.03Z"/>
        <path class="cls-2" d="m115.17,230.84c.05-.81.4-1.6.62-2.48,1.9.68,1.44,2.02,1.43,3.08-.02,4.84-.17,9.68-.19,14.52-.05,12.04-.04,24.07-.1,36.11,0,.91-.11,1.83-.22,2.74l45.27.22c0-5.04-.11-9.89.15-14.7.17-3.28,2.35-5.55,4.52-5.58,2.42-.03,3.99,1.81,4.56,5.46.14.9.14,1.82.14,2.73,0,3.94-.03,7.89-.06,12.14l7.96.04c-.08-5.28-.17-10.37.43-15.44.1-.87.54-1.76,1.02-2.51,1.99-3.14,5.36-3.04,7.09.25.53,1.01.91,2.22.92,3.35.07,4.71,0,9.44-.03,14.4l7.98.04c.02-5.2,0-10.24.14-15.27.02-.96.61-2.01,1.2-2.83,2.16-3.08,5.45-2.86,7.09.49.51,1.03.89,2.24.9,3.37.07,4.65,0,9.32-.03,14.29l45.16.22c-.09-17.03-.17-34.07-.19-51.1,0-1.63.46-3.26.7-4.9.35-.09.69-.18,1.04-.27.37,1.14,1.08,2.28,1.07,3.42-.05,5.75-.4,11.49-.44,17.23-.09,11.24-.05,22.49-.07,33.74,0,.62.07,1.28-.04,1.89l113.7.56c-2.78-.01-5.05-.03-7.74-.04.03-5.69-.09-11.05.14-16.4.16-3.67-.65-6.89-2.47-10.09-1.27-2.23-2.72-3.24-5.29-3.13-3.36.15-6.74,0-10.24-.01.06-11.08.12-21.64.17-32.27-3.21-1.13-5.17-3.53-6.68-6.39-.74-1.39-1.64-2.72-2.18-4.18-.94-2.52-2.73-4-5.04-5.19-4.9-2.53-9.76-5.14-14.55-7.85-4.47-2.53-8.88-5.09-14.31-4.48-.1.01-.22-.13-.5-.31-.14-1.12-.3-2.38-.48-3.78-1.96-.01-3.72-.02-5.61-.03-.28,1.46-.53,2.7-.81,4.13-1.11.06-2.16.3-3.15.14-3.27-.53-5.8.64-8.21,2.79-3.52,3.15-7.3,6-10.89,9.08-5.77,4.94-12.22,9.11-16.98,15.2-.72.92-2.19,1.7-3.35,1.75-4.03.19-8.07.04-12.02.02q-.51-2.99-2-4.25c-.2.32-.51.61-.56.94-.83,5.38-1.19,5.7-6.79,5.67-7.49-.04-14.98-.08-22.47-.12-1.27,0-2.55-.01-3.61-.02-.8-1.54-1.1-3.22-2.05-3.75-2.46-1.38-2.38-3.69-3.04-5.86-1.42-4.65-.63-9.37-.77-14.06-.06-1.82-.26-3.81.36-5.43.62-1.62.32-2.67-.45-3.98-1.42-2.42-2.02-4.92-1.38-7.86.36-1.64-.2-3.62-.8-5.29-1.29-3.59-2.58-7.12-2.23-11.05.41-4.6-1.21-8.94-2.01-13.38-.46-2.57-1.15-5.2-.97-7.74.16-2.31-.45-3.71-2.27-4.52-.52-1.78,1.78-4.17-1.43-4.93-1.8,1.46-.04,3.01-.34,4.58-.89.75-1.86,1.57-2.69,2.28-.01,2.31.11,4.38-.08,6.42-.15,1.55-.69,3.06-1.08,4.58-.77,3.01-2.63,6.21-2.13,8.99,1.06,5.97-.82,11.05-2.73,16.34-.5,1.39-.41,3.1-.19,4.6.24,1.62.31,3.05-.6,4.51-.88,1.42-1.57,2.96-2.18,4.15,2.2,6.52,1.11,12.9.67,19.23-.12,1.67-.7,3.32-1.19,4.95-.25.84-.66,1.67-1.17,2.37-1.12,1.52-2.36,2.94-3.77,4.67-8.29-.04-16.96-.09-25.62-.14-.66,0-1.31-.02-1.97-.04-.39-.01-.79-.03-1.18-.1-2.59-.46-3.28-1.25-3.51-3.89-.08-.92-.23-1.83-.34-2.75-.27-.02-.53-.04-.8-.06-.63,1.38-1.26,2.75-2,4.39-3.38-.02-6.78-.13-10.17-.02-2.17.07-3.73-.72-5.17-2.29-2.3-2.51-4.61-5.04-7.18-7.27-6.05-5.24-12.43-10.12-18.34-15.51-3.41-3.11-6.9-5.02-11.57-4.42-.47.06-.98-.21-1.58-.35-.1-1.24-.19-2.38-.3-3.74-2.02-.11-3.92-.21-5.93-.32-.21,1.64-.36,2.9-.56,4.44-1.63,0-3.06-.16-4.46.01-1.53.19-3.17.4-4.51,1.08-7.12,3.66-14.14,7.52-21.25,11.2-1.97,1.02-3.16,2.47-4.2,4.39-2.34,4.28-3.88,9.32-9.19,10.7-.06,10.93-.11,21.49-.17,32.32-3.95-.02-7.62-.13-11.29,0-1.06.04-2.6.43-3.05,1.18-1.99,3.35-4.17,6.61-3.92,10.89.29,4.84.14,9.7.14,14.55,0,1-.16,2-.24,2.98l106.99.52c-.77-7.74-1-40.73-.24-53.97Zm165.44,18.21c.1-2.21,1.45-3.28,3.19-3.3,1.75-.02,2.81.99,3.16,3.26.71,4.66.54,9.32.3,14.16-2.39-.01-4.44-.02-6.78-.04.03-4.75-.08-9.43.13-14.08Zm16.51-3.27c1.68.14,2.74,1.11,2.91,2.7.51,4.8,1.09,9.61-.03,14.67-2.21-.01-4.36-.02-6.61-.04.02-4.65.03-9.06.1-13.47.01-.63.3-1.28.57-1.87.59-1.3,1.53-2.12,3.06-1.99Zm-31.84,36.79c.01-2.05-.12-3.99.07-5.89.22-2.21,1.52-3.08,3.84-2.9,2.04.15,2.98,1.08,3.08,3.25.08,1.69,0,3.38-.01,5.58-2.49-.01-4.53-.02-6.98-.04Zm14.42.16c.01-1.98-.16-3.91.08-5.78.29-2.29,1.62-3.19,3.8-2.98,2.07.2,2.81,1.02,2.91,3.33.05,1.17.02,2.35,0,3.53,0,.5-.09,1-.19,1.93-2.29-.01-4.23-.02-6.6-.04Zm46.4-8.68c1.78-.02,3.11.66,3.33,2.58.22,1.93.3,3.87.48,6.22-1.18.13-1.81.25-2.44.26-1.42.02-2.84,0-4.75-.02.01-2.19-.08-4.1.06-5.99.16-2.03,1.33-3.02,3.32-3.05Zm-13.8.08c1.83.15,2.98.97,3.04,2.87.06,1.91,0,3.83-.02,5.83-2.56-.01-4.72-.03-7.42-.04.18-2.28.12-4.35.55-6.31.46-2.08,1.58-2.55,3.84-2.36Zm-11.26,5.52c-.01.91-.1,1.82-.17,3.16-2.41-.01-4.46-.02-6.92-.04.01-2.03-.15-3.97.08-5.85.25-2.1,1.57-3.07,3.46-3.01,2.21.07,3.21,1.03,3.46,3.38.08.78.11,1.57.09,2.36Zm11.74-16.39c-2.4-.01-4.45-.02-6.39-.03.03-4.79-.08-9.34.13-13.87.1-2.2,1.5-3.42,3.11-3.45,1.56-.03,3.07,1.21,3.16,3.39.19,4.55.02,9.11,0,13.96Zm13.25-31.88c-.01,2.68-.03,4.87-.04,7.35-1.89-.01-3.64-.02-5.72-.03.01-2.37.03-4.75.04-7.35,1.88.01,3.64.02,5.72.03Zm-14.24-.08c-.01,2.43-.03,4.8-.04,7.41-1.76,0-3.39-.02-5.35-.03.01-2.45.03-4.82.04-7.41,1.75,0,3.39.02,5.35.03Zm-14.03-.17c1.26,2.37.62,4.76.52,7.44-1.9-.01-3.63-.02-5.66-.03.01-2.3.02-4.67.04-7.43,1.91.01,3.44.02,5.09.03Zm-13.44.04c-.01,2.51-.03,4.78-.04,7.35-1.69,0-3.31-.02-5.2-.03.01-2.36.03-4.74.04-7.35,1.66,0,3.18.02,5.2.03Zm-13.81-.03c-.01,2.33-.02,4.62-.04,7.26-1.68,0-3.44-.02-5.66-.03.01-2.4.02-4.7.04-7.26,1.88.01,3.64.02,5.66.03Zm-115.69,28.44c19.04,0,38.08.02,57.11.05.6,0,1.2.18,2.13.32-1,2.25-2.5,1.6-3.69,1.6-8.14,0-16.29-.07-24.43-.11-9.19-.05-18.39-.06-27.58-.15-1.32-.01-2.92.6-3.86-.96.05-.22.07-.35.12-.47.05-.1.13-.28.2-.28Zm25.13-84.36c.01-2.31.02-4.62.04-6.93,2.11,2.25,1.68,4.56.92,6.89l-.96.05Zm3.13-.03c.01-2.39.02-4.54.04-7.04,3.43.58,3.57,1,2.61,6.92-.77.04-1.6.07-2.64.12Zm5.41-6.86c1.31,2.29,1.2,4.63.3,7.64-2.08-2.89-1.32-5.26-.3-7.64Zm-7.08,34.49c.06-1.45.93-2.98,2.64-2.92,1.57.06,2.63,1.3,2.74,2.89.29,4.01.45,8.04.69,12.54-2.46-.01-4.14-.02-6.19-.03.02-4.21-.06-8.35.12-12.49Zm-93.67,58.42c-2.42-.01-4.35-.02-6.55-.03-.17-.84-.5-1.68-.5-2.53,0-3.25.04-6.5.17-9.75.04-1.02.07-2.24.62-2.99.69-.93,1.88-1.94,2.94-2.04.82-.08,1.94,1.05,2.61,1.89.52.66.73,1.7.74,2.58.05,4.14-.01,8.28-.04,12.87Zm-12.88-.11c-2.55-.01-4.73-.03-7.24-.04.02-4.68-.11-9.22.14-13.74.13-2.29,1.85-3.8,3.37-3.75,1.61.05,3.12,1.47,3.49,3.72.76,4.53.42,9.08.23,13.81Zm28.61-31.88c-.01,2.36-.03,4.73-.04,7.41-1.71,0-3.44-.02-5.7-.03.01-2.59.03-4.86.04-7.41,1.89.01,3.64.02,5.7.03Zm-14.11-.08c-.01,2.51-.03,4.79-.04,7.36-1.69,0-3.31-.02-5.18-.03-.98-2.36-.63-4.82-.01-7.36,1.77,0,3.4.02,5.23.03Zm-44.44,7.46c-.75,0-1.49-.13-2.47-.22.01-2.58.03-4.95.04-7.54,1.76,0,3.39.02,5.4.03-.01,2.37-.03,4.73-.04,7.55-1.17.08-2.05.19-2.93.18Zm11.47-.21c.01-2.33.03-4.72.04-7.4,1.77,0,3.4.02,5.46.03-.01,2.59-.03,4.87-.04,7.4-1.83,0-3.48-.02-5.46-.03Zm13.8-7.42c1.91.01,3.55.02,5.53.03-.01,2.53-.03,4.88-.04,7.51-1.9-.01-3.62-.02-5.53-.03.01-2.61.03-4.99.04-7.51Zm-15.04,18.02c.11-.84.68-1.71,1.26-2.39,1.36-1.61,3.14-1.59,4.26.16.67,1.06,1.15,2.41,1.19,3.65.13,4.04.01,8.1-.01,12.62-2.36-.01-4.42-.02-7-.04-.07-4.71-.3-9.36.31-14.01Zm-16.92,33.64c.01-2.01-.1-3.91.06-5.79.18-2.17,1.49-3.15,3.69-3.04,2.07.1,3.01.95,3.13,3.14.1,1.78,0,3.57,0,5.73-2.53-.01-4.45-.02-6.87-.04Zm14.29-.18c.01-1.94-.1-3.61.06-5.26.25-2.58,1.05-3.26,3.42-3.26,2.52,0,3.32.78,3.56,3.54.06.65.06,1.3.04,1.95-.03.9-.1,1.8-.17,3.07-2.17-.01-4.28-.02-6.9-.04Zm14.27.17c.01-2.08-.12-3.78.06-5.44.29-2.63,1.3-3.39,3.88-3.24,2.03.11,2.8.88,2.97,3.33.12,1.68,0,3.37,0,5.39-2.25-.01-4.37-.02-6.92-.04Zm14.61.22c.01-2.08.09-3.98.01-5.88-.08-1.98.9-2.82,2.76-2.96,2.15-.16,3.51.53,3.74,2.45.25,2.01.04,4.08.02,6.42-2.31-.01-4.21-.02-6.54-.03Zm14.21.11c.01-2.19.02-4.23.04-6.28.02-2.13,1.62-2.52,3.21-2.67,1.73-.16,3.18.46,3.37,2.42.2,2.04.21,4.1.32,6.56-2.62-.01-4.54-.02-6.94-.04Z"/>
      </g>
      <g>
        <path class="cls-2" d="m796.6,250.76v-.02"/>
        <path class="cls-2" d="m911.94,276.32c0-5.93.9-12.26.9-17.7,12.97-2.66,19.22-6.69,20.54-13.18-3.35,0-6.68.02-10.01,0-5.91-.05-11.47-1.38-16.84-3.98-5.56-2.7-9.19-6.14-7.99-13,.48-2.73.05-5.62.04-8.44,0-4.72,0-9.44,0-14.28,7.32-2.28,13.64-5.43,19.14-11.7-4.44.28-8.09.81-11.71.66-3.64-.16-7.34-.68-10.86-1.62-3.41-.91-5.07-3.46-4.86-7.21.15-2.71-.14-5.45-.24-8.22-3.83-.17-6.96-.31-10.21-.46-.12-1.36-.3-2.39-.27-3.42.02-1.02.25-2.03.4-3.11,13.32-3.71,23.15-11.52,30.55-24.28-3.1,1.27-5.17,2.12-7.23,2.96-4.48,1.84-9.05,2.87-13.94,1.89-7.12-1.42-9.53-4.14-9.78-11.34-.06-1.76.03-3.53-.16-5.28-.13-1.18-.63-2.31-.96-3.47-.38.06-.75.12-1.13.18-.37,3.04-.73,6.09-1.14,9.5-1.8.2-3.44.39-5.6.63,0-2.31-.06-4.01.01-5.71.11-2.81.63-5.65.38-8.43-.32-3.52,1.08-5.35,4.13-6.97,2.9-1.55,5.59-3.75,7.87-6.14,5.8-6.09,9.54-13.48,12.48-21.28.46-1.23.68-2.55,1.23-4.66-4.1,2.4-7.34,4.54-10.78,6.25-5.63,2.8-11.45,4.18-16.82-.52-5.49-4.8-8.83-11.08-10.24-18.07-.53-2.66-.64-5.22-2.91-7.31,1.47-1.4,2.66-2.53,3.86-3.68-1.34-1.21-2.44-2.2-4.77-4.3,2.12-.85,3.75-1.51,5.39-2.17-2.05-1.73-4.02-2.94-3.85-3.48.49-1.55,1.85-2.84,2.87-4.22-4.41-2.94-4.37-3.62.37-6.17-1.18-1.15-3.34-2.37-3.27-3.44.09-1.39,1.95-2.67,2.96-3.89-1.09-1.06-3.24-2.24-3.18-3.31.07-1.28,2.01-2.46,3.14-3.68q-3.43-1.93-4.77-9.31c-.31,2.96-.56,5.35-.8,7.65-1.59.51-2.81.91-4.28,1.38q5.7,4.37-.15,7.37c1.58,1.14,3.15,2.27,5.17,3.73-2.07,1.36-3.42,2.25-4.71,3.09,1.31,1.3,3.29,2.45,3.19,3.36-.15,1.31-1.81,2.45-2.65,3.45.97,1.11,2.84,2.33,2.74,3.37-.12,1.29-1.86,2.43-2.87,3.61.92,1.14,2.73,2.43,2.56,3.38-.24,1.38-1.9,2.51-2.87,3.65,1.23.94,2.46,1.88,3.59,2.75-1.2,2.3-2.6,3.76-2.64,5.27-.2,7.93-4.37,13.92-9.23,19.55-3.41,3.95-7.86,5.43-12.9,3.67-3.3-1.16-6.44-2.78-9.59-4.32-1.96-.96-3.82-2.14-5.68-3.19-.42.7-.61.89-.58.99,4.51,12.63,10.25,24.36,22.55,31.46,1.24.72,2.92,2.07,2.99,3.21.31,5.55.14,11.13.14,17.26-2-.45-3.77-.84-5.54-1.23-.18-3.34-.33-6.18-.49-9.02-2.48,3.34-2.77,6.93-2.57,10.5.19,3.49-1.44,5.56-4.26,7.22-5.26,3.1-10.75,3.17-16.33,1.34-3.27-1.07-6.42-2.55-10.46-4.18,6.75,11.45,15.29,19.28,27.24,23.2,4.94,1.62,5.3,2.65,3.08,8.13-3.08,0-6.36,0-10.11,0,0,3.26-.08,6.05.02,8.83.12,3.26-1.49,5.21-4.32,6.57-3.99,1.91-8.2,1.89-12.45,1.72-3.25-.13-6.51-.3-9.76-.45,5.25,5.82,11.33,9.69,18.1,11.41.45,9.01.96,17.59,1.21,26.18.04,1.39-.75,3.16-1.76,4.15-1.99,1.96-4.26,3.71-6.66,5.15-6.44,3.88-13.65,4.45-20.96,4.36-2.23-.03-4.45,0-7.91,0,2.06,2.51,3.33,4.31,4.86,5.85,4.65,4.68,11.75,7.17,18.19,7.3,0,6.17,0,12,0,17.67m44.14-153.53c8.47-.31,16.94-.25,25.72.17,0,6.32,0,12.2,0,18.67-8.49.53-16.95.33-25.72.09,0-6.38,0-12.28,0-18.94Zm-8.87,44.75c14.51-.43,28.83-.08,43.55-.21,0,5.92,0,11.13,0,16.36-3.45,1.19-34.89,1.62-43.55.51,0-5.51,0-10.76,0-16.66Zm61.81,57.31c-26.88,0-53.39,0-80.26,0,0-5.5,0-10.67,0-16.2,26.72,0,53.25,0,80.26,0,0,5.63,0,10.81,0,16.2Z"/>
      </g>
      <path class="cls-2" d="m1429.05,158.94c-1.58,1.24-2.91,3.7-3.25,5.84-.84,5.14-3.06,7.99-8.59,9.07,1.06-14.25,4.39-27.56,10.64-39.97.36-.03.71-.06,1.07-.09.88,6.62,1.79,13.23,2.62,19.85.29,2.33-.58,3.81-2.48,5.3Z"/>
      <g>
        <g>
          <path class="cls-2" d="m1207.17,11.66s-.1.09-.1.09c0,0,0,0,0,0,0,0,0,0,0,0,.09.39.21.78.32,1.17,0-.07,0-.15,0-.22,0-.35-.15-.7-.22-1.04Z"/>
          <path class="cls-2" d="m1335.24,208.6c-.97-2.64-1.51-5.28-1.22-8.09.84-8.3-1.45-16.42-1.53-24.67,0-.23-.07-.48-.16-.7-2.45-6.26-3.74-13.02-8.08-18.62.81-.24,1.57-.47,2.77-.83-6.8-5.64-5.29-12.91-4.56-19.6-1.36-2.07-2.78-3.74-3.65-5.65-1.67-3.65-2.39-7.57-1.71-11.57.32-1.88-.08-3.17-1.56-4.39-1.39-1.14-2.58-2.58-2.55-4.56.06-5.48-1.12-10.98.19-16.45.13-.53-.04-1.16-.2-1.71-.53-1.78-1.13-3.55-1.57-4.92-.09,3.04-.69,6.46-.3,10.04.45,4.13-.07,8.37-.11,12.57-.02,1.96-.86,3.58-2.3,4.69-1.87,1.43-2.18,3.15-2.07,5.32.31,6.14-.47,12-5.27,16.24,0,.53-.03.77,0,1,.06.35.23.69.25,1.05.35,6.2,1.28,12.56-4.22,17.36-.13.12-.08.44-.12.67.75.24,1.49.48,2.31.75-1.15,1.64-2.43,2.96-3.11,4.54-1.6,3.73-3.03,7.55-4.28,11.41-.62,1.9-.74,3.98-.98,5.99-.16,1.3.12,2.69-.2,3.94-1.52,5.9-.95,11.9-1.04,17.88,0,.66-.14,1.31-.24,2.13-2.68-.81-5.03-1.53-7.69-2.33,0-3.39,0-6.68,0-9.93-1.4-.29-2.5-.39-3.5-.76-.72-.27-1.71-.79-1.89-1.4-.96-3.27-2.43-6.19-4.77-8.7-.37-.4-.49-1.09-.6-1.67-.46-2.34-.99-4.68-1.27-7.05-.19-1.58-.45-2.96-1.61-4.23-1.91-2.1-1.81-4.09-.1-6.73.16-.24.1-.63.15-1.02-1.12-.21-2.15-.4-3.15-.59-1.18-4.78-2.31-9.37-3.5-14.21-1.17,4.98-2.26,9.6-3.34,14.18-1.2.27-2.28.52-3.45.79,2.44,3.87,2.36,4.51-.13,8.23-.55.82-.66,1.98-.83,3.01-.7,4.34-.71,8.9-4.49,12.13-.59.5-1.02,1.42-1.12,2.2-.49,3.79-2.57,5.71-6.39,5.79-.08,0-.16.16-.51.52,0,3,0,6.29,0,10.03-4.24-.78-6.93,3.2-11.13,3.01-.34-4.05-.89-7.84-.92-11.63-.1-12.1,0-24.21.02-36.31,0-1.08.23-2.26-.12-3.21-1.73-4.66-1.14-9.47-1.18-14.24-.05-5.38-.02-5.38,2.86-9.52-3.96-.06-4.98-3.28-6.43-5.86-1.15-2.05-3.99-3.82-1.91-6.86.09-.13-.36-.58-.45-.91-.29-1.13-.69-2.26-.74-3.4-.11-2.87-.09-5.75-.04-8.63.02-1.29-.04-2.69.43-3.85.99-2.47.43-4.37-1.38-6.17-3.16-3.15-4.44-7.12-4.25-11.46.18-4.27.74-8.52,1.15-13.01-5.34-4.88-7.32-10.98-4.74-18.44-.78-1.06-1.53-2.32-2.52-3.34-1.82-1.87-2.17-4.03-2.16-6.55.06-8.39-.06-16.78-.2-25.16-.01-.74-.22-1.48-.44-2.22-.23,9.63-.5,19.25-.7,28.88-.03,1.48-.8,2.38-1.69,3.39-1.48,1.7-2.8,3.54-3.82,4.86,2.75,8.23-.12,14.21-5.69,19.57,2.72,3.97,1.95,8.32,1.81,12.61-.14,4.16-1.03,8.05-4.03,11.14-1.79,1.85-1.78,3.67-1.25,6.16.71,3.32.48,6.86.47,10.31,0,1.93.94,4.12-1.13,5.69-.17.13-.18.76-.02.95,1.07,1.27.12,2.23-.44,3.24-.86,1.58-1.82,3.1-2.6,4.72-1.07,2.22-2.4,4.07-5.02,4.58-.11.02-.14.4-.21.61q2.5,2.5,2.5,6.48c0,1.32,0,2.64.02,3.95.05,4.04.81,8.14-1.08,12.02-.24.49-.1,1.18-.1,1.78-.22,15.42.38,30.84-.76,46.26-.59,7.98-.21,16.04-.22,24.07,0,14.14.03,28.27.04,42.41,0,1.03-.14,2.06-.22,3.24-3.21,0-6.09,0-8.96,0-15.13-.03-30.26-.02-45.39-.14-2.84-.02-4.78.8-5.98,3.51-1.55,3.49-2.81,7.3-5.16,10.2-4.2,5.19-4.73,10.93-4.28,17.1.09,1.31.01,2.63.01,3.95,0,2,0,4,0,5.99l81.32.02c0-6.81,0-13.49,0-20.41,2.98,0,5.76,0,8.84,0,0,6.76,0,13.43,0,20.41l102.09.03c-.71-2.65-.78-15.31-.04-18.84,2.67,0,5.37,0,8.43,0,.44,6.24.06,12.39.05,18.85h22.74c0-1.32,0-2.38,0-3.44,0-23.49,0-46.98.02-70.47,0-2.63-.04-5.31.42-7.89,1.23-6.94.28-13.61-2.12-20.12Zm-155.13,81.71c-20.18,0-40.37,0-60.55,0,0-.09,0-.17,0-.26,20.18,0,40.37,0,60.55,0,0,.09,0,.17,0,.26Zm24.53-213.5c.14-.68,1.19-1.53,1.93-1.66,1.2-.2,1.98.71,2.01,1.95.06,2.22.02,4.43.02,6.87-1.33.08-2.47.14-3.72.22-.99-2.53-.71-4.99-.24-7.37Zm-6.14.21c.22-1.59,1.27-1.8,2.88-1.26,0,2.61,0,5.27,0,7.92-2.88.66-3.23.54-3.31-1.73-.06-1.64.2-3.29.43-4.92Zm-3.69,25.44c.14-.68.47-1.37.89-1.92.9-1.17,2.28-1.03,2.83.32.4.98.67,2.08.7,3.13.09,3.08.03,6.17.03,9.7-1.67,0-2.96,0-4.69,0-.17-3.75-.54-7.48.23-11.22Zm1.77,55.01c2.25.04,4.5.16,7.22.26,0,5.21,0,9.85,0,14.78-2.89,0-5.82,0-9.01,0-.14-4.29-.28-8.55-.4-12.81-.04-1.46.73-2.25,2.19-2.22Zm7.2,40.84c-3,0-5.78,0-8.96,0,0-4.99,0-9.73,0-14.68,2.84,0,5.65,0,8.96,0,0,2.4,0,4.83,0,7.27,0,2.37,0,4.74,0,7.41Zm-.11,6.9c0,4.92,0,9.74,0,14.77-2.95,0-5.75,0-8.86,0,0-4.85,0-9.65,0-14.77,2.78,0,5.58,0,8.86,0Zm-.02,73.85c-2.96,0-5.66,0-8.38,0-.71-2.53-.82-11.88-.14-16.1,2.73,0,5.51,0,8.52,0,0,5.3,0,10.49,0,16.1Zm.14-29.17c-3.21,0-6.01,0-9.03,0,0-5.02,0-9.83,0-14.9,2.98,0,5.76,0,8.96,0,.32,4.97.13,9.86.07,14.9Zm7.14-136.29h-7.31c0-3.49-.13-6.81.04-10.11.13-2.41,1.09-3.32,2.87-3.47,1.85-.16,2.88.55,3.64,2.73,1.2,3.47.64,7.04.75,10.85Zm1.08-29.59c-.85-3.64-.66-6.27.95-9.49.66,1.12,1.31,1.75,1.39,2.44.21,1.75.23,3.53.22,5.3,0,1.76-1.01,2.2-2.56,1.75Zm2.72,29.78c-.52-4.08.22-7.95.71-11.79.09-.74,1.4-1.33,2.14-1.98.58.68,1.59,1.32,1.66,2.05.36,3.77.47,7.56.69,11.73-2.09,0-3.49,0-5.2,0Zm21.97,127.59c.07-3.2.13-6.39.2-9.67.02-1.09.04-2.2.07-3.31,4.05,0,7.81,0,11.8,0,0,6.01,0,11.79,0,18.09-1.48-.04-2.96-.07-4.44-.11-2.38.2-4.79.53-7.38-.33-.07-1.48-.15-3.07-.23-4.66m12.06,63.46c-3.99,0-7.68,0-11.65,0,0-5.92,0-11.7,0-17.75,3.88,0,7.65,0,11.65,0,0,5.81,0,11.62,0,17.75Zm.07-30.15c-3.92.11-7.76,0-11.81-.13,0-6.17,0-11.95,0-17.99,3.89,0,7.64,0,11.81,0,0,6.2,0,11.9,0,18.12Zm36.93,30.1c-3.83.28-7.68.21-11.76.06,0-6.09,0-11.88,0-17.84,1.29-.12,10.8-.06,11.91,0,.09,2.49.03,14.01-.15,17.78Zm-11.78-30.3c0-6.09,0-11.96,0-17.98,3.95,0,7.71,0,11.76,0,0,6.06,0,11.92,0,17.98-3.96,0-7.72,0-11.76,0Zm11.73-28.61c-3.8.72-7.67.28-11.76.27,0-6,0-11.67,0-17.79,4,0,7.67,0,11.36,0,.76,2.27,1.03,12.65.4,17.52Zm17-99.48c-.12-3.43.29-5.36,1.98-8.08,2.55,3.48,1.68,6.86,1.61,10.1-3.16.71-3.5.49-3.59-2.01Zm11.4,134.64c-2.83,0-5.62,0-8.66,0,0-5.32,0-10.63,0-16.12,2.82,0,5.51,0,8.66,0,0,5.58,0,10.71,0,16.12Zm-.07-29.48c-2.74,0-5.52,0-8.58,0,0-4.74,0-9.55,0-14.74,2.88,0,5.47,0,8.05,0,.44,1.21.47,3.2.44,5.74.17,2.54.27,5.62.09,9.01Zm.2-53.77c-2.82.93-5.72.01-8.83.09,0-4.14,0-8.03,0-12.26,2.79,0,5.58,0,8.83,0,0,4.09,0,8,0,12.17Zm-4.62-48.95c0-2.59-.16-5.17.09-7.72.08-.79,1.24-1.99,1.98-2.05.75-.06,2.16.96,2.29,1.68.46,2.51.49,5.1.72,8.09-2.07,0-3.37,0-5.08,0Zm11.48-2.44c-.11,2.41-.19,2.43-3.56,2.41.05-3.47-.78-6.74.89-9.79,1.96.17,2.35,1.48,2.51,2.77.19,1.52.23,3.08.16,4.61Z"/>
        </g>
        <path class="cls-2" d="m1050.43,332.6h54.36v-22.15s241.25,0,241.25,0v22.15s36.06-.03,36.06-.03c0-23.9,0-47.31,0-71.03,5.79,0,11.26,0,16.74,0,1.17,0,2.35,0,3.5-.15,3.74-.52,5.03.21,2.87-3.23-2.09-3.34-6.83-8.24-8.89-10.75-8.02-9.75-13.86-20.79-18.6-32.73-2.77-6.98-1.95-13.45,3.37-18.45,5.29-4.97,11.12-9.25,16.57-14.03,1.74-1.53,2.86-3.9,4.58-5.48,1.38-1.27,3.19-2.53,4.9-2.7,3.58-.35,5.15-1.83,5.09-5.93-.28-19.11,6.09-36.42,12.59-53.66.42-1.12,1.6-2.01,2.6-2.72,1.46-1.03,3.21-1.59,4.58-2.73,3.53-2.93,3.47-4.18,1.4-8.48-1.5-3.13-2.52-6.56-3.5-9.95-1.01-3.49.86-5.83,3.2-7.81,2.77-2.34,5.72-4.07,9.36-2.57,7.31,3.02,10.7,9.42,9.49,17.76-1.3,8.94-1.49,9.42,6.15,13.04,4.75,2.25,5.66,5.44,5.29,10.36-.59,7.88-.94,15.79-1.19,23.69-.05,1.64.31,3.82,1.28,4.89,2.9,3.22,3.71,6.95,3.47,11.2-.1,1.78-.01,3.6-.28,5.35-.56,3.67-.61,6.76,4.1,6.35.42-.04,1.01.19,1.28.53,3.35,4.17,7.8,5.71,12.59,6.75,1.16.25,2.38,1.64,3.07,2.85,3.72,6.51,8.3,12.07,13.24,17.59,11.92,13.3,15.45,29.3,9.56,47.23-.28.84-.6,1.66-.87,2.5-1.73,5.47-3.58,10.77-10.22,10.93,5.74,0,11.49,0,17.74,0l.74,71.41"/>
      </g>
      <path class="cls-3" d="m960.65,334.39c-1.19-.13-2.37-.36-3.53-.66-1.23-.32-2.42-.73-3.58-1.24m0,0c-.69-.31-1.36-.65-2.03-1.01-1.37-.73-2.64-1.62-3.84-2.61-.92-.76-1.77-1.59-2.57-2.48-.68-.75-1.31-1.54-1.88-2.38-.65-.94-1.23-1.92-1.74-2.95-.61-1.22-1.11-2.48-1.5-3.79-.45-1.53-.76-3.1-.89-4.7-.09-1.12-.13-2.24-.06-3.37.06-1.13.2-2.26.41-3.37.33-1.73.87-3.4,1.58-5.01.55-1.25,1.21-2.43,1.96-3.57.68-1.03,1.43-2,2.26-2.9,1.56-1.7,3.32-3.16,5.29-4.37,1.4-.86,2.87-1.56,4.41-2.13,1.43-.53,2.9-.9,4.41-1.15,1.35-.22,2.72-.35,4.09-.33.08,0,.17,0,.31,0v-1.01c.75-.21,4.76.36,6.68.91,2.17.62,4.23,1.51,6.2,2.68.09-.2.17-.37.24-.55.37-.91.75-1.82,1.12-2.73.71-1.72,1.41-3.44,2.12-5.16.39-.94.78-1.89,1.16-2.83.69-1.69,1.38-3.37,2.07-5.06.38-.93.77-1.87,1.15-2.8.25-.6.49-1.21.74-1.81.05-.11.04-.21,0-.33-.51-1.43-.6-2.89-.29-4.38.25-1.19.77-2.24,1.51-3.2.8-1.03,1.79-1.81,2.97-2.36,1.3-.61,2.68-.83,4.11-.74.89.05,1.75.3,2.61.51,1.47.37,2.95.75,4.42,1.12.14.03.27.07.44.12-.22.86-.44,1.7-.67,2.58-.27-.06-.51-.11-.74-.17-1.13-.29-2.27-.59-3.4-.88-.81-.21-1.62-.44-2.45-.58-1.09-.19-2.16-.04-3.18.44-.91.43-1.66,1.06-2.2,1.9-.91,1.41-1.17,2.93-.65,4.55.1.31.24.62.39.91.1.18.11.32.03.51-.36.84-.71,1.69-1.06,2.54-.69,1.67-1.37,3.34-2.06,5-.03.07-.04.14-.07.23.09,0,.17.02.24.02.07,0,.13,0,.2,0,14.43,0,28.87,0,43.3,0,.42,0,.41,0,.58-.37.5-1.09,1-2.18,1.5-3.27.28-.61.56-1.22.84-1.83.02-.03.02-.07.05-.13-.29-.13-.58-.26-.87-.4-.76-.34-1.52-.68-2.27-1.04-.88-.41-1.76-.83-2.63-1.27-.84-.42-1.66-.85-2.49-1.28-.41-.21-.82-.44-1.22-.65-.65-.35-1.01-1.09-.86-1.78.16-.75.76-1.32,1.51-1.35.69-.03,1.38-.02,2.07-.02,2.96.02,5.92.03,8.88.08,2.28.03,4.55.11,6.83.17.64.02,1.21.2,1.67.66,1.2,1.18.84,3.01-.44,3.7-.51.27-1.04.49-1.57.73-1,.45-2,.9-3,1.35-.84.37-1.67.75-2.51,1.12-.15.06-.23.16-.3.31-.48,1.08-.97,2.15-1.46,3.23-.3.65-.58,1.31-.89,1.96-.12.25-.11.44.04.68.36.57.69,1.15,1.03,1.73.87,1.48,1.74,2.97,2.61,4.45.61,1.03,1.22,2.07,1.83,3.1.39.66.77,1.32,1.16,1.98.05.09.11.17.18.28.08-.03.15-.05.21-.08,1.08-.51,2.2-.97,3.34-1.33,1.46-.46,2.95-.79,4.48-.99,1.69-.22,3.39-.29,5.09-.16,1.42.11,2.83.31,4.23.64,1.33.31,2.62.73,3.88,1.25.7.29,1.39.63,2.08.97.9.45,1.76.98,2.6,1.56.82.56,1.6,1.17,2.35,1.82.94.81,1.81,1.69,2.61,2.63.63.73,1.22,1.49,1.75,2.3.38.59.76,1.17,1.1,1.78.86,1.52,1.54,3.11,2.06,4.78.73,2.34,1.09,4.75,1.11,7.2,0,.51-.04,1.02-.06,1.53,0,.06-.02.13-.04.22-.33-.02-.66-.04-1.01-.06-.04.35-.07.69-.11,1.02-.16,1.51-.47,2.98-.91,4.43-.61,2.02-1.49,3.92-2.61,5.7-.77,1.23-1.66,2.39-2.65,3.46-.81.88-1.67,1.69-2.59,2.45-.83.68-1.72,1.3-2.63,1.86-.96.59-1.95,1.12-2.98,1.56-1.18.51-2.39.94-3.64,1.26-2.48.65-5,.89-7.56.77-1.7-.08-3.36-.35-5-.78-1.8-.47-3.52-1.14-5.16-2.01-1.74-.91-3.34-2.02-4.82-3.32-1.13-1-2.16-2.09-3.08-3.27-1.11-1.43-2.05-2.96-2.82-4.61-.48-1.04-.89-2.1-1.22-3.2-.32-1.09-.57-2.19-.74-3.32-.02-.11-.04-.22-.07-.36-1.52.07-3.02.19-4.55.3-.4,2.64-1.78,4.61-4.15,5.88.62,1.97,1.22,3.91,1.84,5.89.78.03,1.57,0,2.36.02.07.21.09,2.26.03,2.65-2.28,0-4.56,0-6.88,0-.02-.87,0-1.74-.01-2.66h1.67c-.53-1.73-1.04-3.4-1.56-5.09-.14,0-.27,0-.4,0-.88.05-1.74-.04-2.58-.28-1.13-.32-2.13-.87-3-1.66-1.35-1.24-2.17-2.77-2.42-4.59-.19-1.41,0-2.77.63-4.06.06-.13.04-.2-.06-.29-1.01-.86-2.01-1.72-3.02-2.58-.73-.63-1.46-1.26-2.19-1.89-1.02-.87-2.04-1.74-3.06-2.61-1.13-.96-2.25-1.93-3.37-2.9-1.16-1-2.33-1.99-3.49-2.99-.85-.73-1.7-1.47-2.55-2.2-.87-.75-1.75-1.5-2.63-2.25-.86-.74-1.72-1.48-2.58-2.22-.9-.77-1.81-1.55-2.71-2.32-.3-.26-.6-.52-.9-.78-.03-.03-.07-.05-.14-.11-.49,1.21-.96,2.39-1.44,3.57,6.59,5.32,10.03,12.15,9.91,20.65-.09,5.78-2.33,10.77-4.9,14.12-.28-.2-.56-.4-.86-.61-.17.21-.33.41-.49.62-.94,1.2-1.99,2.3-3.14,3.3-1.05.91-2.17,1.73-3.36,2.44-.99.59-2.01,1.12-3.08,1.56-.94.39-1.9.74-2.88,1.02-1.38.38-2.77.66-4.2.8-1.77.18-3.55.18-5.32-.02m14.08-40.71c-.38-.23-.72-.45-1.08-.66-1.11-.64-2.26-1.17-3.47-1.59-1.16-.4-2.35-.7-3.57-.89-.84-.13-1.69-.22-2.54-.25-2.23-.07-4.41.21-6.55.85-1.65.49-3.21,1.17-4.68,2.06-1.39.83-2.66,1.82-3.82,2.96-.81.8-1.55,1.65-2.22,2.57-1.06,1.46-1.92,3.03-2.54,4.72-.58,1.57-.98,3.17-1.16,4.83-.17,1.62-.16,3.23.05,4.84.25,1.96.82,3.84,1.64,5.64.51,1.13,1.14,2.19,1.86,3.21,1.08,1.52,2.33,2.87,3.78,4.04,1.65,1.33,3.45,2.4,5.43,3.17,1.28.5,2.59.87,3.95,1.11,2.08.37,4.17.41,6.27.15,1.8-.22,3.54-.69,5.22-1.38,1.34-.55,2.61-1.24,3.8-2.07,1.31-.91,2.5-1.94,3.57-3.13,1.09-1.21,2.03-2.53,2.8-3.97.67-1.24,1.21-2.54,1.6-3.9.44-1.52.69-3.07.76-4.66.1-2.31-.18-4.57-.86-6.77-.64-2.07-1.59-3.99-2.86-5.76-.81-1.13-1.74-2.16-2.76-3.11-.11-.1-.22-.19-.34-.28-.03.04-.05.05-.06.07-.58,1.41-1.17,2.83-1.75,4.24-.35.84-.69,1.67-1.04,2.51-.55,1.31-1.08,2.62-1.64,3.92-.46,1.09-1.11,2.06-1.94,2.9-.75.76-1.61,1.37-2.57,1.83-.99.48-2.04.79-3.14.9-.53.05-1.08.06-1.61.03-.52-.03-.89-.35-1.09-.83-.33-.8.27-1.73,1.15-1.78.4-.02.79-.02,1.19-.05.86-.06,1.67-.32,2.43-.7.68-.34,1.29-.79,1.81-1.35.55-.58,1.01-1.22,1.31-1.97.19-.48.38-.96.58-1.45.51-1.25,1.02-2.5,1.53-3.75.59-1.43,1.18-2.86,1.76-4.3.26-.65.53-1.29.81-1.98Zm55.39,19.71c.02.18.02.32.05.46.33,1.77.86,3.48,1.64,5.11.84,1.78,1.93,3.4,3.24,4.86.69.77,1.43,1.47,2.23,2.13,1.09.9,2.26,1.67,3.51,2.33.94.49,1.91.9,2.91,1.25,1.42.49,2.87.8,4.36.97,1.63.18,3.26.16,4.89-.05,1.22-.16,2.42-.41,3.59-.78,1.08-.35,2.13-.77,3.14-1.29,1.33-.68,2.58-1.5,3.73-2.45,1.27-1.05,2.4-2.24,3.39-3.57.77-1.04,1.44-2.15,2-3.32.74-1.55,1.28-3.17,1.59-4.86.18-.95.3-1.9.34-2.87.1-2.25-.19-4.45-.82-6.61-.43-1.44-1.03-2.82-1.78-4.13-.85-1.48-1.87-2.84-3.06-4.07-.83-.86-1.73-1.63-2.7-2.33-.96-.69-1.97-1.3-3.03-1.82-1.41-.69-2.89-1.21-4.43-1.56-1.02-.23-2.04-.39-3.08-.46-1.23-.09-2.46-.08-3.68.06-1.09.12-2.17.3-3.23.61-.76.22-1.51.48-2.26.75-.41.15-.79.34-1.21.53.06.11.1.19.15.27.18.31.36.62.55.93.86,1.47,1.71,2.94,2.57,4.4.61,1.05,1.24,2.1,1.85,3.15.73,1.25,1.46,2.49,2.19,3.74.5.86,1,1.71,1.5,2.57.09.15.2.22.38.24.88.11,1.58.53,2.09,1.26.68.99.69,2.36-.16,3.4-1.11,1.36-3.18,1.42-4.38.13-.12-.13-.25-.17-.42-.16-1.9.12-3.79.24-5.69.36-1.82.12-3.64.25-5.46.37-2.06.14-4.11.27-6.17.4-.1,0-.2.02-.35.03Zm-2.22-34.91c-.19,0-.32,0-.45,0-14.39,0-28.77,0-43.16,0-.07,0-.13,0-.2,0-.16-.02-.25.05-.31.21-.62,1.54-1.25,3.08-1.88,4.62-.13.32-.25.65-.39.98,9.08,7.81,18.16,15.6,27.21,23.38.59-.41,1.15-.8,1.73-1.2,0-.02,0-.06-.02-.09-.17-.57-.35-1.14-.52-1.71-.38-1.23-.77-2.45-1.14-3.68-.05-.15-.12-.19-.26-.19-.46,0-.93,0-1.39,0-.11,0-.22,0-.34,0,0-.9,0-1.76,0-2.63h6.86c.06.29.06,2.4-.02,2.63-.22,0-.44,0-.67,0s-.47,0-.71,0c-.22,0-.45-.04-.66.04.1.49,1.43,4.65,1.56,4.85.81-.09,1.63-.05,2.44.1.03-.07.05-.11.07-.15.65-1.45,1.31-2.89,1.96-4.34.85-1.88,1.69-3.75,2.53-5.63.51-1.14,1.02-2.27,1.54-3.41.73-1.63,1.47-3.25,2.2-4.88.74-1.65,1.49-3.31,2.23-4.96.48-1.06.96-2.12,1.44-3.17.11-.24.21-.48.34-.78Zm-3.05,32.63c0-.16,0-.29,0-.42-.04-1.71.15-3.4.48-5.07.28-1.4.68-2.77,1.19-4.1.55-1.44,1.24-2.82,2.05-4.13.99-1.6,2.14-3.07,3.45-4.41,1.19-1.21,2.47-2.3,3.88-3.25.22-.15.43-.3.64-.44-.31-.65-5.81-10-5.97-10.16-.17.38-.34.76-.51,1.14-.53,1.19-1.07,2.38-1.6,3.56-.71,1.57-1.41,3.13-2.12,4.7-.6,1.33-1.21,2.67-1.81,4-.72,1.61-1.45,3.22-2.17,4.83-.5,1.1-1,2.2-1.5,3.3-.79,1.75-1.57,3.5-2.36,5.24-.14.31-.27.62-.41.93,1.65,1.08,2.74,2.55,3.26,4.44,1.17-.06,2.31-.11,3.49-.17Zm5.06-.39c.08.01.11.02.14.02,1.11-.07,2.23-.14,3.34-.22.96-.06,1.92-.14,2.88-.2,1.73-.11,3.45-.22,5.18-.33,1.3-.08,2.6-.17,3.9-.25.67-.04,1.34-.1,2.01-.14.15,0,.25-.06.3-.2.07-.16.13-.31.22-.46.08-.13.07-.23,0-.36-.52-.87-1.02-1.74-1.53-2.61-.77-1.31-1.53-2.63-2.3-3.94-.47-.81-.95-1.61-1.42-2.42-.63-1.08-1.26-2.15-1.89-3.23-.46-.79-.92-1.58-1.38-2.37-.07-.13-.16-.25-.24-.38-2.29,1.48-4.17,3.32-5.69,5.54-1.66,2.42-2.74,5.08-3.24,7.97-.2,1.18-.32,2.37-.27,3.59Z"/>
      <path class="cls-1" d="m1.53,328.26l-.03-39.95,375.15-.28.03,39.95,12.4-.11c-.21-3.4.17-8.9,4.35-9.18.02-1.9.05-3.61.07-5.33.6-46.69,1.27-93.38,1.68-140.06-1.94-50.54-8.41-45.85,10.94-46.23.95.02,2.04.02,3.22.02-.31-.66-.48-1.4-.46-2.18l.19-9.8c.05-2.73,2.31-4.9,5.04-4.85l1.21.02c.12-8.58,10.27-14.48,20.07-14.29,9.82.19,20.42,6.23,19.65,15.07l3.38.07c2.73.05,4.9,2.31,4.85,5.04l-.19,9.8c0,.21-.03.42-.06.63,18.76.57,18.71-4.55,11.45,49.59-.79,46.83-1.3,93.66-1.85,140.49-.01,1.07.26,2.93.81,3.1,4.34,1.34,3.95,4.7,3.82,7.27l25.87,1.16v-51s252.05,0,252.05,0v51s41.35.06,41.35.06l.62-53.36h115.31s0,58.24,0,58.24h50.67"/>
    </g>
  </g>
</svg>