<?xml version="1.0" encoding="UTF-8"?>
<svg id="Layer_2" data-name="Layer 2" xmlns="http://www.w3.org/2000/svg" viewBox="0 0 604.83 282.53">
  <defs>
    <style>
      .cls-1 {
        fill: #8be3f8;
      }

      .cls-2 {
        fill: #fff;
        font-family: Transducer-ExtendedBlack, Transducer;
        font-size: 50px;
        font-weight: 800;
        letter-spacing: .11em;
      }
    </style>
  </defs>
  <g id="Layer_1-2" data-name="Layer 1">
    <text class="cls-2" transform="translate(0 156.39) scale(.93 1)"><tspan x="0" y="0">GO BACK </tspan></text>
    <g>
      <path class="cls-1" d="m356.28,279.58c0,2.26,2.44,3.68,4.41,2.56l242.65-138.31c1.99-1.13,1.99-3.99,0-5.13L360.69.39c-1.97-1.12-4.41.3-4.41,2.56v276.62Zm9.49-11.26V14.2l222.91,127.07-222.91,127.05Z"/>
      <path class="cls-1" d="m372.78,25.19v232.14s203.61-116.07,203.61-116.07L372.76,25.19h.01Zm9.49,215.81V41.53l174.96,99.74-174.96,99.74Z"/>
      <path class="cls-1" d="m388.29,54.2v174.12l152.71-87.06-152.73-87.06h.01Zm9.49,157.78V70.54l124.07,70.72-124.07,70.72Z"/>
      <path class="cls-1" d="m405.64,82.89v116.75l102.41-58.37-102.41-58.37Zm9.49,100.43v-84.09l73.76,42.04-73.76,42.05Z"/>
      <path class="cls-1" d="m422.23,109.76v63.01l55.27-31.51-55.27-31.51Zm9.49,46.69v-30.35l26.63,15.17-26.63,15.18Z"/>
    </g>
  </g>
</svg>