<?xml version="1.0" encoding="UTF-8"?>
<svg id="Layer_2" data-name="Layer 2" xmlns="http://www.w3.org/2000/svg" viewBox="0 0 500 500">
  <defs>
    <style>
      .cls-1 {
        fill: #6be6fb;
      }
    </style>
  </defs>
  <g id="Layer_1-2" data-name="Layer 1">
    <g>
      <circle class="cls-1" cx="249.95" cy="249.93" r="65.79"/>
      <path class="cls-1" d="m333.83,74.02h-168c-24.4,0-47.42,9.58-64.81,26.98-17.4,17.4-26.98,40.42-26.98,64.81v168c0,24.4,9.58,47.42,26.98,64.81,17.4,17.4,40.42,26.98,64.81,26.98h168c24.4,0,47.42-9.58,64.81-26.98,17.4-17.4,26.98-40.42,26.98-64.81v-168c0-24.4-9.58-47.42-26.98-64.81-17.4-17.4-40.42-26.98-64.81-26.98Zm-83.88,278.42c-56.53,0-102.51-45.99-102.51-102.51s45.99-102.51,102.51-102.51,102.51,45.99,102.51,102.51-45.99,102.51-102.51,102.51Zm114.29-185.9c-14.57,0-26.42-11.85-26.42-26.42s11.85-26.42,26.42-26.42,26.42,11.85,26.42,26.42-11.85,26.42-26.42,26.42Z"/>
      <path class="cls-1" d="m0,0v500h500V0H0Zm462.35,333.81c0,34.21-13.4,66.45-37.74,90.78-24.33,24.33-56.57,37.74-90.78,37.74h-168c-34.21,0-66.45-13.4-90.78-37.74-24.33-24.33-37.74-56.57-37.74-90.78v-168c0-34.21,13.4-66.45,37.74-90.78,24.33-24.33,56.57-37.74,90.78-37.74h168c34.21,0,66.45,13.4,90.78,37.74,24.33,24.33,37.74,56.57,37.74,90.78v168Z"/>
    </g>
  </g>
</svg>