<?xml version="1.0" encoding="UTF-8"?>
<svg id="Layer_2" data-name="Layer 2" xmlns="http://www.w3.org/2000/svg" xmlns:xlink="http://www.w3.org/1999/xlink" viewBox="0 0 299.35 258.02">
  <defs>
    <style>
      .cls-1 {
        clip-path: url(#clippath);
      }

      .cls-2 {
        letter-spacing: -.06em;
      }

      .cls-3 {
        fill: none;
      }

      .cls-3, .cls-4 {
        font-size: 24.99px;
      }

      .cls-5, .cls-6, .cls-7 {
        font-family: TransducerVF-BlackExtended, 'Transducer VF';
        font-variation-settings: 'wght' 900, 'wdth' 200, 'slnt' 0;
        font-weight: 800;
      }

      .cls-4 {
        fill: #fff;
      }

      .cls-8 {
        font-family: HiraKakuStd-W8-83pv-RKSJ-H, 'Hiragino Kaku Gothic Std';
      }

      .cls-9 {
        fill: #6be7fc;
      }

      .cls-9, .cls-10, .cls-11 {
        stroke-width: 0px;
      }

      .cls-10 {
        fill: #e43a94;
      }

      .cls-11 {
        fill: #cec72a;
      }

      .cls-6 {
        letter-spacing: 0em;
      }

      .cls-7 {
        letter-spacing: -.11em;
      }
    </style>
    <clipPath id="clippath">
      <text class="cls-3" transform="translate(0 214.33)"><tspan class="cls-5"><tspan x="0" y="0" xml:space="preserve"> COPENH</tspan><tspan class="cls-2" x="158.98" y="0">A</tspan><tspan x="182.22" y="0">GEN</tspan></tspan><tspan class="cls-5" x="0" y="29.99">LIGHT</tspan><tspan class="cls-8" x="103.93" y="29.99"> </tspan><tspan class="cls-5" x="112.25" y="29.99">FESTI</tspan><tspan class="cls-7" x="210.94" y="29.99">V</tspan><tspan class="cls-6" x="232.93" y="29.99" xml:space="preserve">AL  </tspan></text>
    </clipPath>
  </defs>
  <g id="Layer_2-2" data-name="Layer 2">
    <g>
      <path class="cls-10" d="m238.4,185.56H26.86L132.63,0l105.77,185.56Zm-199.5-7h187.45L132.63,14.13,38.9,178.56Z"/>
      <path class="cls-11" d="m218.25,173.39H47.01L132.63,23.2l85.62,150.2Zm-159.19-7h147.14L132.63,37.33,59.06,166.39Z"/>
      <path class="cls-11" d="m196.85,161.95H68.41s64.22-112.66,64.22-112.66l64.22,112.66Zm-116.39-7h104.34s-52.17-91.52-52.17-91.52l-52.17,91.52Z"/>
      <path class="cls-9" d="m175.69,149.15h-86.12l43.06-75.54,43.06,75.54Zm-74.08-7h62.03l-31.01-54.41-31.02,54.41Z"/>
      <path class="cls-9" d="m155.87,136.91h-46.48l23.24-40.77,23.24,40.77Zm-34.44-7h22.39l-11.19-19.64-11.2,19.64Z"/>
      <g>
        <text class="cls-4" transform="translate(.04 214.34)"><tspan class="cls-5"><tspan x="0" y="0" xml:space="preserve"> COPENH</tspan><tspan class="cls-2" x="158.98" y="0">A</tspan><tspan x="182.22" y="0">GEN</tspan></tspan><tspan class="cls-5" x="0" y="29.99">LIGHT</tspan><tspan class="cls-8" x="103.93" y="29.99"> </tspan><tspan class="cls-5" x="112.25" y="29.99">FESTI</tspan><tspan class="cls-7" x="210.94" y="29.99">V</tspan><tspan class="cls-6" x="232.93" y="29.99">AL</tspan></text>
        <g class="cls-1">
          <polygon class="cls-10" points="240.91 195.3 240.91 196.81 95.59 246.58 .09 246.58 1.37 224.75 240.91 195.3"/>
        </g>
      </g>
    </g>
  </g>
</svg>