<?xml version="1.0" encoding="UTF-8"?>
<svg id="Layer_2" data-name="Layer 2" xmlns="http://www.w3.org/2000/svg" viewBox="0 0 1319.47 637.17">
  <defs>
    <style>
      .cls-1 {
        stroke: #000;
        stroke-miterlimit: 10;
        stroke-width: .47px;
      }
    </style>
  </defs>
  <g id="Layer_1-2" data-name="Layer 1">
    <path d="m870.01,335.48l-.44-.91c.58-.52,4.43-1.77,6.4-2.12,2.22-.39,4.46-.5,6.75-.32,0-.22-.01-.41-.02-.6-.06-.98-.13-1.96-.19-2.94-.12-1.86-.25-3.71-.37-5.57-.07-1.02-.13-2.04-.2-3.05-.12-1.82-.24-3.64-.36-5.46-.07-1.01-.13-2.02-.2-3.02-.04-.65-.09-1.3-.13-1.95,0-.12-.06-.21-.14-.29-1.09-1.06-1.81-2.33-2.18-3.81-.29-1.18-.29-2.35-.04-3.54.27-1.27.82-2.41,1.63-3.42.9-1.12,2.04-1.92,3.37-2.47.83-.34,1.7-.5,2.57-.69,1.49-.32,2.98-.62,4.46-.93.14-.03.28-.05.45-.08.18.87.35,1.72.54,2.61-.27.06-.5.12-.74.17-1.15.24-2.29.47-3.44.71-.82.17-1.65.32-2.46.55-1.06.31-1.96.91-2.66,1.79-.63.79-1.03,1.68-1.14,2.67-.2,1.67.23,3.15,1.42,4.37.23.24.48.45.75.64.16.12.24.24.25.44.05.91.11,1.83.17,2.74.11,1.8.23,3.6.35,5.4,0,.07.02.14.04.24.09-.03.16-.06.22-.08.06-.03.12-.06.18-.09,12.97-6.34,25.93-12.69,38.9-19.03.38-.18.37-.18.36-.59-.03-1.2-.06-2.4-.09-3.6-.02-.67-.03-1.34-.05-2.01,0-.04,0-.07-.02-.14-.32,0-.64.02-.96.03-.83.02-1.66.05-2.49.07-.97.01-1.94.02-2.92.02-.93,0-1.87-.03-2.8-.06-.46-.01-.92-.03-1.39-.05-.73-.02-1.39-.54-1.56-1.22-.19-.75.11-1.52.76-1.88.6-.33,1.23-.63,1.85-.93,2.67-1.28,5.33-2.57,8.01-3.83,2.06-.97,4.14-1.9,6.21-2.85.58-.27,1.17-.35,1.79-.14,1.6.53,2.07,2.33,1.23,3.52-.33.47-.72.9-1.09,1.34-.7.84-1.4,1.69-2.1,2.53-.59.7-1.17,1.41-1.76,2.11-.1.12-.14.24-.13.41.05,1.18.08,2.36.11,3.54.02.72.06,1.43.06,2.15,0,.28.1.45.33.59.57.35,1.12.73,1.68,1.1,1.43.95,2.86,1.9,4.3,2.85,1,.66,2,1.32,3,1.98.64.42,1.27.85,1.91,1.27.09.06.18.11.28.17.06-.06.11-.11.16-.16.75-.94,1.55-1.83,2.42-2.66,1.11-1.06,2.3-2.01,3.58-2.86,1.42-.94,2.92-1.75,4.5-2.39,1.33-.53,2.68-.96,4.08-1.28,1.33-.3,2.67-.5,4.03-.58.76-.05,1.53-.05,2.29-.04,1.01,0,2.02.11,3.02.26.98.14,1.95.35,2.91.6,1.2.32,2.37.72,3.5,1.21.88.38,1.75.8,2.58,1.3.6.36,1.2.72,1.77,1.11,1.44.98,2.76,2.12,3.95,3.39,1.68,1.79,3.07,3.79,4.16,5.98.23.46.41.93.62,1.4.03.06.04.12.06.21-.31.13-.61.26-.94.39.12.33.24.65.35.97.52,1.43.89,2.89,1.13,4.38.34,2.08.38,4.17.16,6.27-.15,1.45-.44,2.87-.86,4.27-.34,1.14-.76,2.26-1.25,3.34-.45.98-.97,1.92-1.55,2.83-.6.95-1.26,1.86-1.99,2.72-.83.98-1.74,1.89-2.71,2.73-1.94,1.67-4.1,2.99-6.45,4.01-1.56.67-3.17,1.16-4.84,1.5-1.82.37-3.66.52-5.52.47-1.96-.06-3.89-.35-5.78-.87-1.45-.4-2.86-.93-4.21-1.59-1.63-.79-3.15-1.76-4.55-2.9-.89-.72-1.73-1.5-2.5-2.34-.77-.84-1.48-1.72-2.12-2.66-.06-.09-.13-.18-.22-.29-1.33.73-2.63,1.5-3.96,2.27.8,2.55.42,4.92-1.14,7.1,1.42,1.5,2.82,2.98,4.24,4.48.72-.31,1.41-.7,2.12-1.02.16.16,1.07,1.99,1.19,2.37-2.05,1-4.1,2.01-6.18,3.02-.4-.77-.77-1.56-1.18-2.38l1.5-.73c-1.23-1.32-2.43-2.6-3.64-3.89-.13.06-.25.11-.36.18-.76.43-1.58.73-2.44.88-1.15.21-2.3.15-3.42-.17-1.76-.51-3.17-1.53-4.19-3.06-.79-1.18-1.21-2.49-1.22-3.92,0-.14-.05-.2-.18-.23-1.28-.33-2.56-.66-3.84-.99-.93-.24-1.86-.49-2.79-.73-1.3-.34-2.6-.67-3.9-1-1.44-.37-2.87-.75-4.3-1.12-1.48-.38-2.96-.77-4.44-1.15-1.09-.28-2.17-.57-3.26-.86-1.12-.29-2.23-.57-3.35-.86-1.1-.28-2.19-.57-3.29-.86-1.15-.3-2.3-.6-3.46-.89-.38-.1-.77-.2-1.15-.3-.04-.01-.09-.02-.18-.03.09,1.3.18,2.57.28,3.84,8.26,1.88,14.35,6.5,17.97,14.2,2.46,5.23,2.64,10.7,1.81,14.84-.34-.05-.68-.11-1.04-.17-.06.26-.11.51-.17.77-.31,1.49-.78,2.94-1.37,4.34-.54,1.28-1.19,2.51-1.95,3.67-.63.97-1.32,1.89-2.08,2.76-.67.77-1.38,1.5-2.14,2.18-1.07.95-2.2,1.81-3.42,2.57-1.51.94-3.11,1.72-4.79,2.32-1.13.41-2.29.72-3.46.96-1.24.26-2.5.41-3.76.46-.75.03-1.51.01-2.26-.01-1.55-.05-3.08-.29-4.59-.66-1.16-.28-2.29-.65-3.39-1.1-.94-.38-1.85-.81-2.73-1.31-.99-.56-1.95-1.19-2.86-1.89-1.08-.83-2.09-1.74-3.01-2.74-1.08-1.18-2.04-2.45-2.86-3.83-.58-.97-1.1-1.96-1.54-3-.44-1.05-.81-2.11-1.11-3.21-.46-1.7-.71-3.44-.78-5.2-.05-1.36.02-2.72.19-4.07.16-1.22.41-2.42.76-3.6.65-2.21,1.59-4.3,2.83-6.25.88-1.38,1.89-2.66,3.02-3.85,1.05-1.1,2.21-2.09,3.45-2.97,1.12-.79,2.29-1.51,3.53-2.1.08-.04.15-.07.28-.14Zm13.06,1.74c-.44-.04-.85-.09-1.26-.12-1.28-.09-2.55-.06-3.82.1-1.22.15-2.42.4-3.6.77-.81.26-1.61.54-2.39.89-2.03.92-3.87,2.13-5.51,3.64-1.27,1.16-2.37,2.46-3.3,3.9-.88,1.36-1.59,2.8-2.13,4.34-.38,1.07-.67,2.17-.86,3.28-.31,1.78-.39,3.56-.21,5.36.17,1.66.51,3.28,1.09,4.85.56,1.53,1.28,2.97,2.17,4.32,1.09,1.65,2.42,3.09,3.95,4.35.96.79,1.99,1.47,3.08,2.07,1.63.89,3.36,1.56,5.17,1.97,2.07.47,4.16.64,6.27.46,1.37-.12,2.71-.36,4.03-.74,2.03-.58,3.93-1.47,5.69-2.62,1.52-.99,2.88-2.17,4.08-3.53.96-1.08,1.8-2.26,2.51-3.52.78-1.39,1.39-2.85,1.83-4.38.45-1.57.71-3.17.77-4.8.05-1.41-.03-2.81-.28-4.2-.28-1.56-.73-3.06-1.36-4.52-.92-2.12-2.17-4.02-3.75-5.7-1.48-1.58-3.19-2.89-5.1-3.92-1.23-.66-2.51-1.18-3.85-1.58-.14-.04-.28-.07-.43-.1-.01.05-.02.07-.02.09.1,1.53.2,3.05.29,4.58.06.9.11,1.81.17,2.71.08,1.41.18,2.83.25,4.24.06,1.18-.09,2.33-.47,3.46-.35,1.01-.85,1.93-1.5,2.78-.68.87-1.49,1.61-2.43,2.19-.46.28-.94.53-1.43.74-.48.2-.95.08-1.35-.27-.65-.58-.52-1.67.25-2.11.35-.19.7-.37,1.05-.57.75-.43,1.36-1.02,1.88-1.7.46-.61.81-1.28,1.03-2,.24-.76.37-1.54.31-2.35-.04-.52-.08-1.04-.11-1.55-.09-1.35-.18-2.69-.27-4.04-.1-1.54-.2-3.09-.3-4.63-.05-.7-.09-1.39-.14-2.13Zm58.41-6.63c.09.15.16.28.24.39,1.07,1.45,2.31,2.75,3.72,3.87,1.54,1.22,3.22,2.21,5.05,2.94.96.38,1.94.69,2.94.93,1.37.33,2.77.51,4.18.55,1.06.03,2.11-.03,3.16-.16,1.49-.18,2.94-.54,4.34-1.05,1.54-.56,3-1.29,4.38-2.19,1.03-.68,2-1.43,2.88-2.28.82-.79,1.57-1.63,2.26-2.54.9-1.2,1.66-2.48,2.28-3.84.68-1.5,1.18-3.07,1.47-4.69.23-1.28.35-2.56.34-3.86-.02-1.72-.24-3.41-.71-5.06-.26-.93-.57-1.84-.95-2.73-.9-2.06-2.12-3.92-3.64-5.57-1.02-1.11-2.16-2.08-3.41-2.93-1.41-.96-2.92-1.73-4.53-2.31-1.12-.4-2.27-.71-3.45-.91-1.17-.2-2.34-.31-3.52-.3-1.57,0-3.13.18-4.66.54-1.01.24-2,.55-2.97.94-1.14.46-2.24,1.01-3.28,1.67-.93.59-1.82,1.23-2.63,1.96-.59.53-1.14,1.1-1.7,1.67-.3.31-.56.66-.86,1.01.1.07.18.13.25.18.3.2.6.4.9.59,1.41.94,2.83,1.89,4.24,2.83,1.01.67,2.03,1.34,3.05,2.02,1.2.8,2.41,1.6,3.61,2.4.83.55,1.65,1.1,2.47,1.65.15.1.27.11.44.05.84-.29,1.65-.22,2.43.22,1.04.59,1.66,1.82,1.35,3.13-.4,1.71-2.24,2.67-3.88,2.04-.17-.06-.3-.05-.45.04-1.65.94-3.3,1.88-4.95,2.82-1.58.91-3.16,1.82-4.74,2.73-1.79,1.03-3.58,2.05-5.36,3.07-.09.05-.17.11-.3.18Zm-17.33-30.39c-.17.08-.29.14-.41.2-12.92,6.32-25.85,12.64-38.77,18.97-.06.03-.12.06-.18.09-.16.06-.2.15-.19.32.12,1.66.23,3.32.34,4.97.02.35.06.69.08,1.05,11.59,3.02,23.16,6.04,34.71,9.05.35-.63.68-1.22,1.02-1.83-.01-.02-.03-.05-.06-.07-.41-.44-.81-.87-1.22-1.3-.88-.93-1.77-1.87-2.64-2.81-.11-.12-.19-.12-.32-.06-.41.21-.83.41-1.25.61-.1.05-.2.1-.31.15-.4-.81-.77-1.58-1.16-2.37l6.17-3.02c.19.23,1.1,2.13,1.14,2.37-.19.1-.4.19-.6.29s-.43.2-.64.31c-.19.1-.42.16-.58.33.3.39,3.33,3.55,3.53,3.67.69-.44,1.44-.76,2.23-.98,0-.07,0-.12,0-.17-.05-1.59-.09-3.17-.14-4.76-.06-2.06-.13-4.12-.2-6.17-.04-1.25-.08-2.49-.12-3.74-.06-1.78-.11-3.57-.17-5.35-.06-1.81-.12-3.62-.17-5.44-.04-1.16-.07-2.32-.1-3.48,0-.26-.02-.52-.04-.85Zm11.59,30.65c-.07-.15-.13-.26-.19-.38-.79-1.52-1.36-3.12-1.8-4.76-.37-1.38-.61-2.79-.73-4.21-.14-1.54-.12-3.08.03-4.61.18-1.87.57-3.69,1.16-5.48.53-1.61,1.21-3.16,2.06-4.63.13-.23.26-.45.38-.68-.57-.45-9.61-6.43-9.83-6.5.01.42.03.83.04,1.25.04,1.3.08,2.6.13,3.91.06,1.72.11,3.44.16,5.15.05,1.46.09,2.93.14,4.39.06,1.76.12,3.53.17,5.29.04,1.21.07,2.42.11,3.62.06,1.92.12,3.83.18,5.75.01.34.03.67.05,1.02,1.96.24,3.58,1.09,4.88,2.55,1.02-.56,2.03-1.11,3.07-1.68Zm4.38-2.58c.08-.02.11-.03.13-.04.97-.55,1.94-1.1,2.9-1.66.84-.48,1.66-.97,2.5-1.45,1.5-.86,3-1.71,4.5-2.57,1.13-.65,2.26-1.29,3.4-1.94.58-.33,1.16-.68,1.74-1.01.13-.07.19-.16.18-.32,0-.17-.02-.34,0-.51.01-.15-.04-.24-.17-.32-.85-.55-1.68-1.11-2.52-1.67-1.27-.84-2.53-1.69-3.8-2.53-.78-.52-1.56-1.03-2.34-1.55-1.04-.69-2.08-1.38-3.11-2.07-.76-.51-1.52-1.02-2.29-1.52-.12-.08-.25-.15-.38-.23-1.4,2.33-2.29,4.82-2.68,7.48-.43,2.9-.23,5.77.59,8.58.34,1.15.76,2.27,1.34,3.34Z"/>
    <path d="m684.8,381.99c-6.04-1.18-11.51-2.25-16.97-3.32.82-4.17,1.54-7.85,2.35-12.02,9.69,1.9,19.07,3.73,28.46,5.57.45-2.3.8-4.11,1.23-6.26-14.06-2.75-27.82-5.44-41.58-8.14-13.72-2.69-27.43-5.39-41.22-8.1.53-5.86,2.37-10.93,2.6-16.12-28.17-5.51-55.95-10.95-84.23-16.49-1.07,5.46-2.08,10.64-3.18,16.22-28.82-5.64-57.13-11.19-85.76-16.79-.32,2.29-.57,4.12-.85,6.19,10.53,2.37,20.85,3.77,30.92,6.38-.82,4.18-1.52,7.77-2.31,11.82-5.66-1.11-11.13-2.18-16.91-3.31-3.4,14.95-5.73,29.68-9.1,44.59l227.83,44.33c2.91-14.86,5.77-29.48,8.72-44.56Zm-53.43-22.21c-.76,3.86-1.48,7.56-2.26,11.52-7.94-1.56-15.71-3.08-23.78-4.65.79-4.04,1.49-7.62,2.26-11.52,8.02,1.57,15.77,3.09,23.78,4.66Zm-31.15-6.07c-.76,3.87-1.45,7.43-2.25,11.49-7.94-1.16-15.65-2.8-23.71-4.51.81-4.14,1.51-7.73,2.27-11.61,7.92,1.55,15.66,3.07,23.68,4.64Zm-30.86-6.17c-.2,3.93-1.13,7.68-2.14,11.66-8.08-1.58-15.84-3.1-23.88-4.67.73-3.75,1.45-7.43,2.28-11.64,7.99,1.56,15.62,3.06,23.74,4.65Zm-54.77-10.62c7.69,1.5,15.44,3.02,23.66,4.63-.78,3.98-1.48,7.56-2.24,11.45-7.9-1.55-15.64-3.06-23.66-4.63.73-3.71,1.45-7.42,2.24-11.45Zm119.36,70.59c-3.52-.61-7.02-1.37-10.53-2.06-44.7-8.75-89.4-17.49-134.1-26.24-1.35-.26-2.75-.42-4-.94-.54-.23-.76-1.25-1.12-1.9.21-.27.41-.54.62-.81,50.19,9.83,100.39,19.65,150.57,29.51.71.14,1.33.75,1.99,1.14-.03.42-.06.84-.09,1.26-1.11.02-2.25.23-3.33.04Z"/>
    <path d="m427.51,364.2c-.41-.41.21-2.18.72-3.12,22.29-41.19,44.54-82.4,67.03-123.48,31.63-44.54,29.28-39.98,12.95-49.22.12-.17.24-.34.34-.53l4.73-8.58c1.32-2.39.45-5.4-1.94-6.72l-2.96-1.63c4.79-7.46-1.78-17.74-10.38-22.48-8.58-4.73-20.31-4.24-24.41,3.31l-1.06-.58c-2.39-1.32-5.4-.45-6.72,1.94l-4.73,8.58c-.38.68-.57,1.41-.6,2.14-1.05-.55-2.01-1.06-2.84-1.52-17.3-8.66-9.39-9.8-31.2,35.83-22.09,41.14-44.42,82.14-66.68,123.19-.82,1.51-1.63,3.02-2.54,4.68-3.83-1.7-6.34,2.27-7.73,5.37l77.1,40.84c1.19-2.53,4.13-4.81.92-8.01Zm23.66-163.87c4.27,2.31,5.65,10.99-.48,19.37l-15.46-8.36c3.79-9.23,11.67-13.31,15.94-11.01Zm-11.18,20.9c4.27,2.31,5.65,10.99-.48,19.37l-15.46-8.36c3.79-9.23,11.67-13.31,15.94-11.01Zm-11.23,20.78c4.27,2.31,5.65,10.99-.48,19.37l-15.46-8.36c3.79-9.23,11.67-13.31,15.94-11.01Zm-11.98,22.39c4.27,2.31,5.65,10.99-.48,19.37l-15.46-8.36c3.79-9.23,11.67-13.31,15.94-11.01Zm-12.63,22.41c4.27,2.31,5.65,10.99-.48,19.37l-15.46-8.36c3.79-9.23,11.67-13.31,15.94-11.01Zm-12.87,42.5l-15.46-8.36c3.79-9.23,11.67-13.31,15.94-11.01s5.65,10.99-.48,19.37Zm92.84-111.31c4.27,2.31,5.65,10.99-.48,19.37l-15.46-8.36c3.79-9.23,11.67-13.31,15.94-11.01Zm-11.18,20.9c4.27,2.31,5.65,10.99-.48,19.37l-15.46-8.36c3.79-9.23,11.67-13.31,15.94-11.01Zm-11.23,20.78c4.27,2.31,5.65,10.99-.48,19.37l-15.46-8.36c3.79-9.23,11.67-13.31,15.94-11.01Zm-11.98,22.39c4.27,2.31,5.65,10.99-.48,19.37l-15.46-8.36c3.79-9.23,11.67-13.31,15.94-11.01Zm-12.63,22.41c4.27,2.31,5.65,10.99-.48,19.37l-15.46-8.36c3.79-9.23,11.67-13.31,15.94-11.01Zm-12.87,42.5l-15.46-8.36c3.79-9.23,11.67-13.31,15.94-11.01,4.27,2.31,5.65,10.99-.48,19.37Z"/>
    <g>
      <path d="m57.66,61.7c1.79,1.55,3.35,2.89,5.13,4.42,0,0,0,0,0,0l-5.13-4.42Z"/>
      <path d="m178.69,94.75c.56-.59,1.34-.96,2.08-1.48,1,1.75-.22,2.47-.91,3.27-3.16,3.67-6.41,7.26-9.57,10.92-7.85,9.12-15.65,18.29-23.51,27.41-.6.69-1.27,1.32-1.95,1.94l34.3,29.55c3.27-3.83,6.34-7.59,9.66-11.09,2.26-2.38,5.39-2.7,7.06-1.31,1.86,1.55,1.86,3.96-.07,7.11-.47.77-1.07,1.48-1.67,2.17-2.56,2.99-5.15,5.98-7.92,9.2l6.03,5.2c3.37-4.07,6.6-7.99,10.35-11.46.64-.59,1.55-.98,2.41-1.25,3.55-1.1,6.05,1.17,5.23,4.8-.25,1.11-.75,2.28-1.47,3.14-3.01,3.63-6.12,7.18-9.37,10.93l6.05,5.21c3.39-3.95,6.65-7.79,10.01-11.52.64-.71,1.77-1.13,2.75-1.38,3.64-.94,6,1.36,5.08,4.98-.28,1.11-.77,2.28-1.5,3.15-2.97,3.58-6.05,7.09-9.3,10.85l34.21,29.48c10.99-13.02,21.98-26.03,33.02-39,1.06-1.24,2.46-2.19,3.71-3.27.32.16.64.31.96.47-.45,1.11-.66,2.44-1.41,3.29-3.77,4.34-7.76,8.48-11.52,12.82-7.37,8.5-14.63,17.08-21.95,25.62-.4.47-.77,1.02-1.25,1.41l86.14,74.22c-2.1-1.82-3.82-3.3-5.86-5.06,3.72-4.31,7.1-8.47,10.75-12.39,2.5-2.69,3.98-5.66,4.67-9.28.48-2.53.04-4.23-1.99-5.81-2.66-2.07-5.13-4.37-7.78-6.65,7.24-8.39,14.13-16.38,21.07-24.43-1.71-2.94-1.64-6.04-.94-9.19.34-1.54.51-3.13,1.05-4.6.92-2.52.52-4.82-.47-7.22-2.09-5.1-4.09-10.24-5.97-15.42-1.76-4.82-3.45-9.63-7.98-12.7-.08-.06-.08-.24-.18-.56.62-.95,1.31-2,2.09-3.19-1.48-1.28-2.82-2.43-4.25-3.66-1.16.92-2.15,1.71-3.29,2.62-.88-.67-1.84-1.17-2.48-1.93-2.14-2.53-4.83-3.28-8.06-3.21-4.72.11-9.45-.17-14.17-.16-7.59.02-15.21-1-22.78.54-1.14.23-2.77-.13-3.68-.84-3.19-2.47-6.17-5.21-9.16-7.79q1.56-2.6,1.24-4.53c-.36.12-.78.13-1.03.35-4.13,3.56-4.6,3.56-8.84-.09-5.67-4.89-11.35-9.78-17.02-14.67-.96-.83-1.93-1.66-2.73-2.36.39-1.68,1.25-3.16.87-4.19-.98-2.65.58-4.35,1.49-6.43,1.94-4.46,5.6-7.54,8.54-11.2,1.14-1.42,2.28-3.06,3.8-3.9,1.52-.83,1.97-1.83,2.24-3.32.49-2.77,1.65-5.06,4.05-6.87,1.34-1.01,2.2-2.89,2.83-4.54,1.35-3.57,2.65-7.09,5.47-9.85,3.3-3.24,4.88-7.58,7.16-11.48,1.31-2.25,2.5-4.7,4.29-6.52,1.62-1.65,2.06-3.12,1.21-4.91.76-1.69,4.07-2.02,2.12-4.68-2.32-.06-1.98,2.26-3.23,3.26-1.16,0-2.43,0-3.52-.01-1.51,1.75-2.76,3.41-4.23,4.83-1.12,1.08-2.51,1.88-3.79,2.79-2.54,1.79-6.03,3.02-7.46,5.46-3.07,5.23-7.79,7.88-12.69,10.66-1.28.73-2.32,2.09-3.13,3.37-.87,1.38-1.75,2.52-3.38,3.04-1.59.51-3.12,1.24-4.35,1.74-2.56,6.39-7.53,10.53-11.97,15.06-1.17,1.2-2.69,2.07-4.12,2.99-.73.47-1.58.85-2.43,1.04-1.84.42-3.71.71-5.9,1.11-6.28-5.42-12.84-11.07-19.4-16.73-.5-.43-.99-.86-1.47-1.31-.29-.27-.59-.53-.83-.84-1.67-2.03-1.68-3.08-.15-5.24.54-.75,1.02-1.54,1.53-2.32-.19-.19-.38-.38-.57-.56-1.37.64-2.74,1.28-4.37,2.04-2.56-2.21-5.07-4.5-7.72-6.62-1.69-1.35-2.37-2.97-2.45-5.09-.12-3.4-.23-6.83-.75-10.19-1.2-7.91-2.89-15.76-3.89-23.7-.57-4.58-1.99-8.29-5.93-10.87-.39-.26-.61-.79-.97-1.29.73-1.01,1.4-1.94,2.2-3.04-1.47-1.4-2.84-2.7-4.3-4.09-1.22,1.12-2.16,1.97-3.31,3.02-1.23-1.06-2.23-2.11-3.4-2.88-1.29-.85-2.67-1.75-4.13-2.1-7.79-1.84-15.64-3.45-23.43-5.27-2.16-.5-4.01-.17-6.05.61-4.55,1.74-9,4.57-13.94,2.18-7.14,8.28-14.03,16.27-21.11,24.48-2.99-2.58-5.72-5.04-8.58-7.33-.83-.66-2.26-1.36-3.09-1.08-3.68,1.26-7.47,2.32-10.05,5.74-2.92,3.87-6.19,7.47-9.34,11.16-.65.76-1.42,1.42-2.12,2.11l81.05,69.84c4.44-6.38,25.68-31.63,34.85-41.21Zm85.75,92.26c-1.13.26-2.26.53-3.39.81-.02.05-.04.09-.05.14-.03-.03-.06-.04-.1-.07-1.31.47-2.62.95-3.93,1.42,1.13-1.06,2.13-2.69,3.89-1.45.05-.02.09-.03.14-.05.02,0,.04,0,.06-.01.64-1.74,2.14-.88,3.38-.78Zm28.29,28.97c1.51-1.61,3.24-1.55,4.57-.44,1.34,1.12,1.5,2.58.29,4.53-2.48,4-5.64,7.44-8.96,10.97-1.81-1.56-3.36-2.9-5.14-4.43,3.1-3.6,6.06-7.22,9.24-10.63Zm14.68,8.23c1.19,1.19,1.36,2.62.46,3.94-2.72,3.99-5.41,8.02-9.54,11.14-1.67-1.44-3.3-2.85-5.01-4.32,3.04-3.52,5.9-6.88,8.82-10.19.42-.47,1.06-.77,1.65-1.05,1.29-.61,2.54-.62,3.62.47Zm-48.1,7.32c1.34-1.55,2.49-3.11,3.87-4.44,1.61-1.54,3.16-1.35,4.81.29,1.46,1.44,1.57,2.76.23,4.47-1.04,1.33-2.2,2.57-3.63,4.23-1.89-1.63-3.43-2.96-5.28-4.56Zm10.87,9.47c1.29-1.5,2.41-3.08,3.81-4.35,1.71-1.56,3.31-1.37,4.83.2,1.44,1.5,1.47,2.6.05,4.42-.72.93-1.51,1.8-2.29,2.68-.33.38-.72.7-1.4,1.35-1.74-1.5-3.2-2.76-5-4.31Zm40.93,23.52c1.36,1.14,1.94,2.52.86,4.12-1.08,1.61-2.28,3.14-3.67,5.04-.98-.67-1.54-.98-2.02-1.38-1.09-.9-2.16-1.85-3.6-3.1,1.43-1.66,2.6-3.17,3.94-4.52,1.43-1.44,2.98-1.44,4.5-.16Zm-10.55-8.9c1.29,1.3,1.63,2.67.45,4.16-1.2,1.49-2.49,2.91-3.8,4.43-1.94-1.67-3.57-3.08-5.62-4.84,1.61-1.62,2.91-3.23,4.51-4.44,1.7-1.29,2.86-.91,4.45.7Zm-12.15-3.11c-.6.68-1.25,1.32-2.18,2.29-1.82-1.57-3.38-2.91-5.24-4.52,1.33-1.54,2.46-3.11,3.85-4.4,1.55-1.43,3.18-1.32,4.59-.04,1.64,1.49,1.78,2.87.44,4.82-.44.65-.94,1.26-1.46,1.85Zm19.57-4.85c-1.82-1.57-3.37-2.9-4.84-4.17,3.13-3.62,6-7.16,9.1-10.47,1.51-1.61,3.36-1.62,4.6-.61,1.21.99,1.55,2.91.2,4.63-2.81,3.58-5.9,6.94-9.07,10.61Zm30.77-15.66c-1.75,2.03-3.18,3.68-4.8,5.56-1.43-1.23-2.76-2.38-4.33-3.73,1.55-1.79,3.1-3.6,4.8-5.56,1.43,1.23,2.75,2.38,4.33,3.73Zm-10.78-9.3c-1.58,1.84-3.13,3.63-4.84,5.61-1.34-1.15-2.57-2.21-4.05-3.5,1.6-1.85,3.15-3.65,4.84-5.61,1.33,1.15,2.57,2.22,4.05,3.5Zm-10.56-9.23c-.57,2.62-2.62,4.02-4.43,6-1.44-1.24-2.75-2.37-4.28-3.69,1.5-1.74,3.05-3.54,4.85-5.63,1.45,1.25,2.61,2.25,3.86,3.33Zm-10.25-8.7c-1.64,1.9-3.12,3.62-4.8,5.57-1.28-1.1-2.5-2.16-3.94-3.4,1.54-1.79,3.1-3.59,4.8-5.57,1.26,1.08,2.4,2.07,3.94,3.4Zm-10.48-8.99c-1.52,1.77-3.02,3.5-4.74,5.5-1.27-1.1-2.61-2.25-4.29-3.7,1.57-1.82,3.07-3.56,4.74-5.5,1.43,1.23,2.75,2.38,4.29,3.7Zm-106.47-53.46c14.48,12.36,28.95,24.73,43.42,37.11.45.39.8.91,1.41,1.62-2.22,1.07-2.94-.4-3.85-1.17-6.2-5.28-12.34-10.63-18.51-15.94-6.96-6-13.95-11.98-20.89-18.02-1-.87-2.61-1.44-2.31-3.23.18-.13.28-.22.4-.28.1-.05.28-.13.33-.08Zm73.88-47.87c1.51-1.75,3.02-3.5,4.53-5.25.15,3.08-1.68,4.56-3.77,5.84l-.76-.59Zm2.4,2.01c1.56-1.81,2.97-3.44,4.6-5.33,2.23,2.67,2.06,3.08-2.51,6.95-.61-.48-1.27-.99-2.09-1.62Zm8.57-1.71c-.49,2.59-2.09,4.31-4.73,6,.3-3.55,2.41-4.86,4.73-6Zm-27.77,21.64c.99-1.06,2.64-1.66,3.9-.51,1.15,1.06,1.16,2.69.21,3.98-2.38,3.24-4.88,6.41-7.62,9.99-1.86-1.61-3.13-2.7-4.68-4.04,2.75-3.19,5.38-6.39,8.2-9.42Zm-109.18-16.36c-1.83-1.58-3.3-2.84-4.96-4.28.41-.75.72-1.6,1.26-2.25,2.1-2.48,4.25-4.92,6.45-7.31.69-.75,1.51-1.66,2.41-1.87,1.14-.26,2.69-.25,3.55.36.68.48.8,2.06.76,3.13-.03.84-.55,1.77-1.11,2.45-2.65,3.18-5.38,6.29-8.38,9.77Zm-9.72-8.44c-1.93-1.67-3.58-3.09-5.48-4.73,3.05-3.54,5.9-7.09,9.02-10.36,1.59-1.66,3.88-1.69,5-.66,1.19,1.09,1.41,3.14.24,5.1-2.36,3.94-5.57,7.18-8.79,10.65Zm42.46-5.68c-1.54,1.79-3.09,3.59-4.84,5.61-1.29-1.11-2.61-2.25-4.31-3.72,1.69-1.96,3.17-3.68,4.84-5.61,1.43,1.24,2.76,2.38,4.31,3.72Zm-10.69-9.22c-1.64,1.9-3.13,3.62-4.81,5.57-1.28-1.1-2.51-2.16-3.92-3.38.79-2.44,2.65-4.08,4.76-5.61,1.34,1.16,2.57,2.22,3.96,3.42Zm-38.65-23.17c-.57-.49-1.05-1.07-1.74-1.77,1.68-1.95,3.24-3.75,4.93-5.71,1.33,1.15,2.57,2.21,4.09,3.53-1.55,1.79-3.09,3.58-4.93,5.72-.94-.7-1.68-1.19-2.35-1.76Zm8.87,7.28c1.52-1.76,3.08-3.57,4.83-5.6,1.34,1.16,2.57,2.22,4.14,3.57-1.69,1.96-3.18,3.69-4.83,5.6-1.39-1.2-2.63-2.27-4.14-3.57Zm15.31,3.31c1.45,1.25,2.69,2.32,4.19,3.61-1.65,1.91-3.19,3.7-4.91,5.69-1.44-1.24-2.74-2.36-4.19-3.61,1.71-1.98,3.26-3.78,4.91-5.69Zm-23.14,3.95c.63-.57,1.63-.86,2.51-1.01,2.08-.34,3.43.83,3.13,2.89-.18,1.24-.69,2.58-1.47,3.55-2.53,3.16-5.25,6.17-8.2,9.6-1.79-1.54-3.34-2.88-5.3-4.57,3-3.63,5.85-7.31,9.33-10.45Zm-34.7,14.61c1.32-1.52,2.47-3.04,3.8-4.36,1.55-1.53,3.17-1.43,4.78.08,1.51,1.41,1.67,2.68.35,4.42-1.08,1.42-2.32,2.72-3.73,4.35-1.91-1.65-3.37-2.91-5.21-4.49Zm10.98,9.14c1.27-1.47,2.27-2.82,3.46-3.97,1.86-1.8,2.91-1.79,4.71-.26,1.92,1.63,2.02,2.75.41,5.01-.38.53-.8,1.03-1.23,1.51-.61.67-1.24,1.31-2.12,2.22-1.64-1.42-3.24-2.8-5.23-4.51Zm10.75,9.39c1.36-1.58,2.36-2.95,3.58-4.1,1.93-1.82,3.19-1.73,5.06.05,1.47,1.4,1.56,2.49.1,4.46-1,1.35-2.18,2.57-3.5,4.1-1.7-1.47-3.31-2.85-5.24-4.52Zm10.97,9.65c1.36-1.57,2.65-2.97,3.83-4.47,1.23-1.56,2.52-1.56,4.02-.46,1.74,1.27,2.32,2.68,1.25,4.3-1.12,1.69-2.62,3.13-4.15,4.9-1.75-1.51-3.19-2.75-4.95-4.27Zm10.74,9.3c1.43-1.66,2.76-3.21,4.1-4.75,1.4-1.61,2.87-.86,4.17.06,1.42,1,2.12,2.41.99,4.03-1.17,1.68-2.5,3.25-4.02,5.2-1.98-1.71-3.44-2.97-5.25-4.53Z"/>
    </g>
    <g>
      <path d="m725.95,421.39v-.02"/>
      <path d="m841.42,407.9c-.68-5.89-1.32-11.38-1.94-16.79,12.58-4.13,18.33-8.85,18.89-15.45-3.33.39-6.63.79-9.94,1.15-5.88.63-11.56-.05-17.18-2.02-5.83-2.05-9.84-5.04-9.43-11.99.16-2.77-.6-5.59-.93-8.39-.55-4.69-1.09-9.38-1.65-14.19,7-3.11,12.92-6.97,17.67-13.82-4.38.79-7.94,1.74-11.55,2-3.64.26-7.37.17-10.97-.36-3.49-.51-5.44-2.86-5.66-6.6-.16-2.71-.77-5.4-1.18-8.14-3.82.27-6.94.49-10.2.72-.27-1.34-.57-2.34-.66-3.36-.09-1.01.02-2.04.04-3.14,12.8-5.21,21.67-14.11,27.56-27.63-2.94,1.62-4.89,2.7-6.84,3.77-4.24,2.34-8.66,3.89-13.63,3.48-7.23-.59-9.94-3.02-11.02-10.13-.26-1.74-.37-3.51-.76-5.22-.26-1.15-.89-2.22-1.35-3.33-.37.1-.73.2-1.1.31-.01,3.07-.03,6.13-.04,9.57-1.77.41-3.37.78-5.49,1.27-.27-2.29-.52-3.98-.65-5.68-.21-2.81-.03-5.69-.59-8.42-.72-3.46.46-5.44,3.3-7.4,2.7-1.87,5.12-4.37,7.11-7.01,5.06-6.71,7.92-14.49,9.95-22.58.32-1.27.38-2.61.68-4.77-3.8,2.86-6.76,5.35-9.99,7.45-5.27,3.43-10.89,5.47-16.77,1.42-6.01-4.13-10.05-9.99-12.25-16.77-.84-2.58-1.23-5.11-3.73-6.92,1.3-1.56,2.35-2.82,3.41-4.1-1.47-1.05-2.68-1.91-5.24-3.73,2.01-1.09,3.55-1.94,5.1-2.78-2.23-1.48-4.34-2.46-4.23-3.01.31-1.6,1.51-3.03,2.36-4.53-4.72-2.41-4.76-3.09-.34-6.18-1.3-1.01-3.59-1.97-3.64-3.04-.07-1.39,1.63-2.88,2.49-4.2-1.21-.93-3.47-1.86-3.54-2.92-.08-1.28,1.72-2.68,2.7-4.02q-3.63-1.52-5.81-8.7c.03,2.97.06,5.38.09,7.7-1.52.69-2.69,1.22-4.09,1.86q6.17,3.68.7,7.34c1.7.95,3.39,1.9,5.57,3.11-1.9,1.59-3.14,2.63-4.32,3.61,1.45,1.14,3.55,2.06,3.55,2.98,0,1.32-1.52,2.64-2.24,3.73,1.1.99,3.09,1.99,3.11,3.03.03,1.3-1.56,2.63-2.43,3.91,1.05,1.02,2.99,2.1,2.93,3.06-.08,1.4-1.6,2.72-2.43,3.95,1.33.8,2.66,1.59,3.88,2.32-.92,2.42-2.15,4.04-2.01,5.54.72,7.91-2.74,14.33-6.92,20.48-2.93,4.31-7.19,6.3-12.4,5.13-3.41-.77-6.72-2.03-10.03-3.19-2.06-.72-4.04-1.68-6.01-2.52-.34.75-.51.95-.46,1.05,5.93,12.03,12.99,23.02,26.03,28.66,1.32.57,3.14,1.72,3.34,2.84.95,5.48,1.42,11.04,2.13,17.13-2.04-.21-3.85-.4-5.65-.59-.56-3.29-1.04-6.1-1.52-8.9-2.08,3.61-1.95,7.2-1.34,10.73.59,3.44-.79,5.69-3.4,7.66-4.87,3.68-10.31,4.39-16.07,3.21-3.38-.69-6.67-1.79-10.87-2.95,8.02,10.6,17.41,17.39,29.73,19.91,5.1,1.04,5.57,2.02,4,7.72-3.06.35-6.32.73-10.04,1.16.38,3.24.62,6.02,1.04,8.77.49,3.23-.88,5.35-3.54,7.02-3.74,2.36-7.93,2.82-12.16,3.14-3.25.25-6.5.45-9.74.68,5.89,5.18,12.37,8.32,19.29,9.25,1.48,8.9,2.98,17.37,4.21,25.87.2,1.38-.38,3.23-1.27,4.32-1.75,2.17-3.81,4.18-6.02,5.89-5.95,4.6-13.05,5.99-20.32,6.74-2.22.23-4.42.51-7.86.91,2.34,2.25,3.8,3.9,5.5,5.25,5.16,4.11,11.22,5.49,17.64,4.88.71,6.13,1.35,11.64,2,17.26m27.48-157.02c8.38-1.28,16.8-2.2,25.57-2.79.73,6.28,1.4,12.12,2.15,18.55-8.38,1.51-16.8,2.28-25.54,3.05-.73-6.34-1.41-12.2-2.18-18.81Zm-3.66,45.47c14.37-2.1,28.63-3.4,43.24-5.22.68,5.88,1.28,11.06,1.88,16.25-3.29,1.58-34.47,5.63-43.21,5.52-.63-5.48-1.24-10.69-1.92-16.55Zm67.99,49.82c-26.71,3.09-53.04,6.15-79.72,9.24-.63-5.46-1.23-10.6-1.86-16.09,26.55-3.08,52.89-6.13,79.72-9.24.65,5.59,1.24,10.74,1.86,16.09Z"/>
    </g>
    <path d="m1247.86,75.06c-4.38,4.46-8.41,8.55-12.43,12.65,4.54-4.85,2.06-9.89-.63-14.95-.41-.78-.77-1.59-1.17-2.37-8.65-16.78-22.54-25.48-40.38-26.3-7.41-.34-14.58-.97-21.83-2.89-1.34-.36-3.19-.46-4.18.19-4.1,2.68-8.32,4.78-13.63,4.24-.43-.04-1.01.22-1.28.54-3,3.65-5.18,1.44-7.4-1.53-1.06-1.42-2.42-2.63-3.62-3.95-2.86-3.15-6.09-5.2-10.42-5.38-1.44-.06-3.25-1.33-4.38-2.52-5.46-5.72-10.86-11.51-16.06-17.46-3.25-3.71-6.16-5.3-11.09-3.49-7.94,2.91-8.14,2.44-13.61-4.75-5.1-6.71-12.04-8.78-19.32-5.69-3.62,1.54-4.46,4.86-4.73,8.47-.23,3.05.13,6.03,3.33,7.75,3.1,1.68,6.27,3.36,9.55,4.48,4.52,1.54,5.46,2.38,5.07,6.95-.15,1.77-.98,3.42-1.27,5.18-.19,1.21-.38,2.68.12,3.76,7.73,16.72,15.61,33.4,29.43,46.6,2.97,2.83,2.92,4.99.66,7.79-1.08,1.34-1.44,3.51-1.5,5.39-.08,2.33.83,4.79.69,7.11-.41,7.24-1.45,14.4-1.61,21.65-.17,7.3,3.88,12.43,10.79,15.34,11.83,4.98,23.84,8.38,36.45,7.8,3.83-.17,7.84.42,11.69,1.27,3.97.87,4.68,3.07,2.43,6.11-.69.94-1.53,1.77-2.35,2.6-3.83,3.92-7.67,7.82-11.73,11.94,16.91,16.63,33.6,33.04,50.65,49.8,1.12-1.14,2.02-2.05,2.92-2.97,30.77-31.28,61.54-62.56,92.31-93.84l-51.44-49.53Zm-134.67-8.87c-.23,2,.6,4.67,1.88,6.41,3.08,4.2,3.55,7.78.44,12.48-9.42-10.75-16.58-22.45-21.05-35.61.23-.27.46-.55.69-.82,5.33,4.01,10.69,8,15.99,12.05,1.87,1.43,2.31,3.09,2.04,5.49Z"/>
    <g>
      <g>
        <path d="m918.22,76.11s-.02.1-.02.1c0,0,0,0,0,0,0,0,0,0,0,0,.24.2.5.39.75.58-.03-.05-.07-.09-.1-.14-.16-.22-.42-.36-.63-.54Z"/>
        <path d="m1089.94,137.85c-1.84-1.18-3.41-2.56-4.55-4.43-3.38-5.53-8.61-9.48-12.53-14.54-.11-.14-.27-.26-.43-.36-4.46-2.72-8.43-6.3-13.74-7.73.39-.53.75-1.03,1.32-1.82-6.85-.3-9.34-5.51-12.02-9.99-1.82-.64-3.47-1.01-4.91-1.78-2.75-1.48-5.03-3.56-6.49-6.35-.69-1.31-1.54-1.93-3.03-1.98-1.4-.05-2.81-.39-3.72-1.62-2.53-3.42-5.84-6.27-7.61-10.27-.17-.38-.57-.7-.93-.96-1.17-.85-2.37-1.67-3.28-2.31,1.37,1.92,2.61,4.32,4.53,6.35,2.22,2.35,3.89,5.21,5.83,7.83.91,1.22,1.15,2.62.78,3.98-.48,1.76.13,2.97,1.22,4.27,3.08,3.65,5.34,7.65,4.37,12.52.25.33.34.49.48.62.2.19.47.32.65.53,3.13,3.68,6.69,7.17,5.54,12.72-.03.14.16.31.24.47.58-.2,1.15-.4,1.78-.62.06,1.55-.12,2.97.21,4.27.76,3.06,1.67,6.09,2.71,9.07.51,1.47,1.41,2.81,2.2,4.17.52.88,1.34,1.61,1.72,2.53,1.83,4.37,5,7.81,7.75,11.55.3.41.53.88.86,1.43-2.04.75-3.83,1.42-5.85,2.17-1.59-2.1-3.14-4.13-4.66-6.15-1,.48-1.73.94-2.52,1.17-.57.17-1.43.31-1.83.02-2.13-1.57-4.41-2.69-7.04-3.14-.42-.07-.81-.44-1.16-.75-1.39-1.23-2.81-2.43-4.1-3.76-.86-.89-1.67-1.62-2.98-1.86-2.17-.4-3.04-1.68-3.22-4.12-.02-.23-.24-.44-.39-.7-.79.4-1.52.76-2.22,1.11-2.97-2.41-5.83-4.72-8.84-7.15,1.61,3.63,3.11,7,4.59,10.34-.61.73-1.16,1.39-1.77,2.11,3.33,1.25,3.58,1.68,3.79,5.15.05.77.52,1.54.9,2.25,1.61,3.01,3.74,5.84,2.92,9.62-.13.59.04,1.36.34,1.89,1.47,2.57,1.09,4.74-1.24,6.58-.05.04-.03.17-.07.56,1.41,1.86,2.95,3.89,4.71,6.21-2.99,1.51-2.78,5.23-5.48,7.09-2.11-2.35-4.23-4.43-6.03-6.76-5.74-7.44-11.37-14.98-17.04-22.48-.51-.67-.92-1.51-1.59-1.93-3.25-2.07-5.15-5.33-7.42-8.25-2.56-3.3-2.53-3.32-2.7-7.23-2.48,1.82-4.62.31-6.73-.61-1.67-.73-4.26-.49-4.4-3.35,0-.13-.5-.19-.7-.35-.71-.56-1.49-1.07-2.05-1.76-1.42-1.72-2.76-3.52-4.08-5.32-.59-.81-1.29-1.65-1.54-2.58-.55-2-1.79-2.9-3.75-3.17-3.44-.46-6.09-2.32-8.01-5.09-1.89-2.73-3.54-5.62-5.39-8.59-5.6-.51-9.68-3.36-11.59-9.18-.98-.29-2.03-.72-3.13-.89-2-.3-3.24-1.47-4.41-3.04-3.9-5.22-7.92-10.35-11.94-15.48-.36-.45-.83-.81-1.31-1.17,4.38,6.07,8.73,12.15,13.13,18.2.68.93.62,1.85.55,2.89-.12,1.75-.07,3.5-.08,4.8,5.57,3.8,6.6,8.85,5.67,14.78,3.55,1.18,5.11,4.23,7.04,6.96,1.87,2.64,3.14,5.47,2.74,8.78-.24,1.98.62,3.11,2.12,4.4,2,1.73,3.52,4.02,5.13,6.16.9,1.19,2.51,2.11,1.97,4.05-.04.16.24.56.43.6,1.26.28,1.12,1.32,1.25,2.21.21,1.38.33,2.78.6,4.14.38,1.88.43,3.65-.96,5.19-.06.06.1.31.16.48q2.72.37,4.59,2.83c.62.81,1.24,1.63,1.87,2.44,1.93,2.48,4.32,4.66,4.98,7.94.08.42.5.78.77,1.15,7.1,9.65,14.71,18.91,21.25,28.98,3.39,5.22,7.4,10.03,11.17,14.99,6.63,8.75,13.3,17.48,19.94,26.23.48.64.88,1.34,1.38,2.11-1.99,1.51-3.77,2.86-5.55,4.21-9.38,7.08-18.74,14.19-28.15,21.22-1.77,1.32-2.58,2.74-2.05,4.98.68,2.89,1.69,5.84,1.6,8.73-.16,5.19,2.21,8.98,5.38,12.59.67.77,1.25,1.62,1.86,2.44.94,1.24,1.88,2.48,2.81,3.71l50.33-38.17c-3.2-4.22-6.33-8.35-9.58-12.63,1.84-1.4,3.57-2.71,5.47-4.15,3.17,4.18,6.3,8.31,9.58,12.63l63.19-47.92c-1.68-1.3-7.67-9.11-8.87-11.64,1.65-1.25,3.33-2.52,5.22-3.96,3.2,3.65,5.85,7.64,8.88,11.64l14.08-10.68c-.62-.82-1.12-1.48-1.62-2.13-11.03-14.54-22.06-29.07-33.07-43.62-1.23-1.63-2.52-3.27-3.45-5.08-2.5-4.88-6.21-8.55-10.76-11.46Zm-57.64,123.4c-12.49,9.48-24.98,18.95-37.47,28.43-.04-.05-.08-.11-.12-.16,12.49-9.48,24.98-18.95,37.47-28.43.04.05.08.11.12.16Zm-85.06-143.64c-.24-.48.02-1.51.42-1.93.65-.69,1.56-.49,2.16.26,1.08,1.34,2.09,2.74,3.23,4.24-.78.67-1.46,1.25-2.2,1.88-1.8-1.1-2.78-2.75-3.61-4.45Zm-3.7,3.01c-.61-1.09-.06-1.71,1.19-2.13,1.22,1.61,2.48,3.26,3.72,4.9-1.47,1.76-1.74,1.85-2.86.48-.8-.99-1.42-2.13-2.05-3.25Zm9.66,17.47c-.23-.48-.36-1.07-.35-1.61,0-1.15.93-1.71,1.9-1.13.71.42,1.39.97,1.91,1.61,1.5,1.87,2.92,3.8,4.57,5.99l-2.9,2.2c-1.86-2.24-3.85-4.38-5.13-7.06Zm26.93,33.21c1.41-1.03,2.86-2.02,4.59-3.23,2.45,3.22,4.63,6.1,6.94,9.14l-5.58,4.23c-2.1-2.59-4.19-5.16-6.26-7.74-.71-.89-.61-1.73.31-2.4Zm23.63,21.89c-1.85,1.41-3.57,2.71-5.55,4.21-2.34-3.09-4.57-6.02-6.89-9.09,1.76-1.34,3.5-2.65,5.55-4.21,1.13,1.48,2.27,2.99,3.41,4.5s2.23,2.93,3.48,4.59Zm3.17,4.32l6.94,9.14c-1.82,1.38-3.56,2.7-5.48,4.16-2.28-3-4.53-5.97-6.94-9.14l5.48-4.16Zm34.66,45.71l-5.18,3.93c-1.62-1.23-6.08-6.96-7.65-9.9l5.27-4c2.49,3.28,4.92,6.49,7.56,9.96Zm-13.61-18.11c-1.98,1.51-3.72,2.82-5.59,4.24-2.36-3.11-4.62-6.08-6.99-9.22,1.85-1.4,3.56-2.7,5.55-4.21,2.53,2.92,4.71,6.04,7.04,9.19Zm-59.57-87.69l-4.52,3.43c-1.64-2.16-3.28-4.15-4.72-6.28-1.05-1.55-.89-2.56.15-3.5,1.07-.97,2.04-1.02,3.54-.02,2.38,1.58,3.7,4.06,5.56,6.36Zm-13.23-18.82c-2.24-1.85-3.35-3.57-3.87-6.32.94.38,1.63.47,2.01.86.95.98,1.8,2.08,2.63,3.18.82,1.1.41,1.84-.76,2.29Zm15.67,17.16c-2.24-2.28-3.6-5.02-5.1-7.63-.29-.5.24-1.48.39-2.23.68.15,1.61.07,1.99.49,1.99,2.17,3.84,4.46,5.93,6.94l-3.22,2.44Zm73.5,68.64c-1.46-2.01-2.92-4.02-4.42-6.08-.5-.69-1-1.38-1.51-2.08,2.51-1.9,4.83-3.67,7.3-5.54,2.82,3.72,5.54,7.3,8.49,11.19-.94.67-1.87,1.35-2.8,2.02-1.38,1.24-2.72,2.57-4.72,3.26-.74-.88-1.54-1.83-2.33-2.77m37.26,33.6c-2.47,1.87-4.75,3.6-7.21,5.47-2.78-3.67-5.49-7.24-8.33-10.98,2.4-1.82,4.73-3.59,7.21-5.47,2.73,3.6,5.45,7.19,8.33,10.98Zm-14.11-18.69c-2.38,1.91-4.81,3.64-7.36,5.47-2.9-3.82-5.61-7.4-8.45-11.13,2.41-1.83,4.73-3.59,7.31-5.54,2.91,3.84,5.59,7.36,8.51,11.21Zm36.98,1.28c-2.24,1.97-4.65,3.74-7.25,5.55-2.86-3.77-5.58-7.35-8.38-11.04.74-.68,6.65-5.11,7.37-5.59,1.22,1.5,6.6,8.66,8.25,11.07Zm-21.51-13.22c-2.86-3.77-5.61-7.4-8.44-11.13,2.44-1.85,4.77-3.62,7.28-5.52,2.85,3.75,5.59,7.37,8.44,11.13-2.45,1.86-4.78,3.63-7.28,5.52Zm-6.17-23.21c-2.01,2.23-4.61,3.77-7.15,5.69-2.82-3.71-5.48-7.22-8.35-11.01l7.03-5.33c1.54,1.05,6.58,7.34,8.47,10.66Zm-36.19-69.54c-1.68-2.06-2.34-3.45-2.57-5.93,3.21.96,4.26,3.45,5.74,5.49-1.62,1.92-1.94,1.95-3.17.44Zm70.27,77.97c-1.75,1.33-3.48,2.64-5.36,4.07-2.5-3.29-4.99-6.58-7.57-9.98,1.74-1.32,3.41-2.59,5.36-4.07,2.62,3.45,5.03,6.62,7.57,9.98Zm-13.88-18.21c-1.7,1.29-3.42,2.59-5.31,4.03-2.22-2.93-4.48-5.91-6.92-9.12,1.78-1.35,3.39-2.57,4.98-3.78.84.54,1.79,1.76,2.96,3.35,1.29,1.49,2.81,3.35,4.29,5.53Zm-25.12-33.37c-1.31,1.9-3.53,2.69-5.42,4.2-1.94-2.56-3.77-4.97-5.76-7.58,1.73-1.31,3.45-2.62,5.46-4.15,1.92,2.53,3.76,4.95,5.71,7.53Zm-25.84-28.12c-1.21-1.6-2.53-3.13-3.57-4.82-.32-.53-.17-1.81.26-2.2.44-.39,1.79-.42,2.21-.03,1.47,1.34,2.7,2.93,4.24,4.67-1.28.97-2.08,1.58-3.15,2.39Zm5.96-6.9c1.07,1.54,1.02,1.59-1.07,3.17-1.59-2.17-3.65-3.8-4.05-6.47,1.29-.82,2.15-.19,2.86.53.83.85,1.59,1.8,2.26,2.78Z"/>
      </g>
      <rect x="981.3" y="250.69" width="187.4" height="17.2" transform="translate(61.89 702.52) rotate(-37.19)"/>
    </g>
    <path class="cls-1" d="m659.61,426.2c-247.9,0-482.07-215.16-608.14-342.3C34.59,66.88.23,74.69.23,96.39v517.65c0,12.65,12.86,22.9,28.73,22.9h1261.54c15.87,0,28.73-10.25,28.73-22.9V96.39c0-22.79-37.23-31.6-52.8-12.49-119.08,146.1-337.27,342.3-606.82,342.3Z"/>
    <rect x="-5.17" y="173.41" width="375.15" height="51" transform="translate(194.52 468.51) rotate(-140.05)"/>
    <rect x="434.38" y="395.5" width="252.05" height="51" transform="translate(1027.96 943.2) rotate(-168.76)"/>
    <rect x="736.85" y="395.53" width="115.31" height="51" transform="translate(1671.19 620.82) rotate(164.92)"/>
  </g>
</svg>