<?xml version="1.0" encoding="UTF-8"?>
<svg id="Layer_2" data-name="Layer 2" xmlns="http://www.w3.org/2000/svg" viewBox="0 0 780.51 466.41">
  <defs>
    <style>
      .cls-1, .cls-2 {
        fill: #8be3f8;
      }

      .cls-3 {
        fill: #ccc64c;
      }

      .cls-4 {
        fill: #d14991;
      }

      .cls-2 {
        font-family: Transducer-ExtendedBlack, Transducer;
        font-size: 38px;
        font-weight: 800;
        letter-spacing: .11em;
      }
    </style>
  </defs>
  <g id="Layer_1-2" data-name="Layer 1">
    <g>
      <g>
        <path class="cls-4" d="m371.41,0v466.41l409.11-233.19L371.41.02v-.02Zm15.43,439.84V26.57l362.52,206.65-362.52,206.63Z"/>
        <path class="cls-3" d="m398.24,44.45v377.53s331.13-188.77,331.13-188.77L398.22,44.45h.02Zm15.43,350.97V71.01l284.54,162.2-284.54,162.2Z"/>
        <path class="cls-3" d="m423.46,91.63v283.17l248.36-141.59-248.38-141.59h.02Zm15.43,256.61V118.19l201.78,115.02-201.78,115.02Z"/>
        <path class="cls-1" d="m451.68,138.28v189.87l166.54-94.93-166.54-94.93Zm15.43,163.33v-136.76l119.96,68.37-119.96,68.39Z"/>
        <path class="cls-1" d="m478.67,181.98v102.47l89.89-51.24-89.89-51.24Zm15.43,75.93v-49.36l43.3,24.67-43.3,24.69Z"/>
      </g>
      <path class="cls-4" d="m386.56,178.2v110H0v-110h386.56ZM12.02,276.2h359.97v-85H12.02v85Z"/>
      <text class="cls-2" transform="translate(27.35 244.7) scale(.93 1)"><tspan x="0" y="0">THE ARTIST</tspan></text>
    </g>
  </g>
</svg>