<?xml version="1.0" encoding="UTF-8"?>
<svg id="Layer_2" data-name="Layer 2" xmlns="http://www.w3.org/2000/svg" viewBox="0 0 500 500">
  <defs>
    <style>
      .cls-1 {
        fill: #6be6fb;
      }
    </style>
  </defs>
  <g id="Layer_1-2" data-name="Layer 1">
    <path class="cls-1" d="m0,0v500h500V0H0Zm393.57,217.08c-24.76-2.46-46.57-11.86-68.02-25.72v8.87c0,38.11.04,76.23-.01,114.34-.08,58.66-38.51,105.75-96.08,115.6-36.64,6.27-69.68-3.78-97.07-29.14-36.93-34.19-46.48-76.49-29.97-123,16.1-45.35,50.49-70.08,98.35-75.46,8.1-.91,16.39-.13,25.04-.13v63.84c-2.76-.33-5.45-.66-8.15-.97-21.83-2.53-39.37,5.29-51.25,23.47-11.76,18-12.29,37.5-.4,55.53,12.52,18.98,33.88,28.62,58.28,22.27,22.08-5.75,37.6-26.2,37.62-48.6.05-79.78.52-168.85.53-248.63,19,0,39-1,43.15-1.02.52,0,.73.61.85,1.02,10.38,35.18,36.58,63.3,73.05,70.8,4.35.89,8.87.97,14.08,1.5v75.43Z"/>
  </g>
</svg>