<?xml version="1.0" encoding="UTF-8"?>
<svg id="Layer_2" data-name="Layer 2" xmlns="http://www.w3.org/2000/svg" viewBox="0 0 500 500">
  <defs>
    <style>
      .cls-1 {
        fill: none;
      }

      .cls-2 {
        fill: #6be6fb;
      }
    </style>
  </defs>
  <g id="Layer_1-2" data-name="Layer 1">
    <g>
      <path class="cls-2" d="m192.44,445.02v-177.97c-4.39,0-8.53,0-12.67,0-15.25.01-30.51.02-45.76.05-1.38,0-2.29-.04-2.29-1.96.08-21.81.05-43.63.06-65.44,0-1.62,0-3.24,0-5.1.9,0,1.67,0,2.44,0,5.39.01,10.78.04,16.17.04,13.35,0,26.69-.03,40.04-.05,1.2,0,2.23.1,2.22-1.81-.08-17.8.05-35.61-.11-53.41-.08-9.07.86-17.95,3.42-26.65,8.05-27.39,24.96-47.43,50.41-60.25,13.9-7,28.88-9.45,44.29-9.57,15.32-.12,30.64-.01,45.96,0,.82,0,1.65,0,2.59,0v75.22c-.59.03-1.05.07-1.5.07-15.84-.02-31.69-.08-47.53-.03-2.34,0-4.72.33-7.01.86-9.26,2.16-15.29,11.12-15.35,18.38-.13,18.46-.01,36.92-.05,55.38,0,1.46.37,1.92,1.87,1.9,6.84-.08,13.68-.05,20.51-.05,15.52,0,31.03,0,46.55,0,2.61,0,2.7.06,2.38,2.68-.31,2.6-.76,5.19-1.16,7.79-1.56,10.18-3.14,20.36-4.69,30.54-1.46,9.59-2.97,19.18-4.3,28.8-.28,2.03-.95,2.68-3.03,2.67-16.96-.09-33.93-.05-50.89-.06-2.28,0-4.56,0-7,0v177.97h-75.58Z"/>
      <rect class="cls-1" width="500" height="500"/>
    </g>
  </g>
</svg>