<?xml version="1.0" encoding="UTF-8"?>
<svg id="Layer_2" data-name="Layer 2" xmlns="http://www.w3.org/2000/svg" viewBox="0 0 211.55 185.56">
  <defs>
    <style>
      .cls-1 {
        fill: #6be7fc;
      }

      .cls-1, .cls-2, .cls-3 {
        stroke-width: 0px;
      }

      .cls-2 {
        fill: #e43a94;
      }

      .cls-3 {
        fill: #cec72a;
      }
    </style>
  </defs>
  <g id="Layer_2-2" data-name="Layer 2">
    <path class="cls-2" d="m211.55,185.56H0L105.77,0l105.77,185.56Zm-199.5-7h187.45L105.77,14.13,12.05,178.56Z"/>
    <path class="cls-3" d="m191.39,173.39H20.15L105.77,23.2l85.62,150.2Zm-159.19-7h147.14L105.77,37.33,32.2,166.39Z"/>
    <path class="cls-3" d="m169.99,161.95H41.55S105.77,49.3,105.77,49.3l64.22,112.66Zm-116.39-7h104.34s-52.17-91.52-52.17-91.52l-52.17,91.52Z"/>
    <path class="cls-1" d="m148.83,149.15H62.71l43.06-75.54,43.06,75.54Zm-74.08-7h62.03l-31.01-54.41-31.02,54.41Z"/>
    <path class="cls-1" d="m129.01,136.91h-46.48l23.24-40.77,23.24,40.77Zm-34.44-7h22.39l-11.19-19.64-11.2,19.64Z"/>
  </g>
</svg>