<?xml version="1.0" encoding="UTF-8"?>
<svg id="Layer_2" data-name="Layer 2" xmlns="http://www.w3.org/2000/svg" viewBox="0 0 248.55 282.53">
  <defs>
    <style>
      .cls-1 {
        fill: #8be3f8;
      }
    </style>
  </defs>
  <g id="Layer_1-2" data-name="Layer 1">
    <g>
      <path class="cls-1" d="m0,279.58c0,2.26,2.44,3.68,4.41,2.56l242.65-138.31c1.99-1.13,1.99-3.99,0-5.13L4.41.39C2.44-.73,0,.69,0,2.95v276.62Zm9.49-11.26V14.2l222.91,127.07L9.49,268.32Z"/>
      <path class="cls-1" d="m16.5,25.19v232.14s203.61-116.07,203.61-116.07L16.48,25.19h.01Zm9.49,215.81V41.53l174.96,99.74L25.99,241Z"/>
      <path class="cls-1" d="m32.01,54.2v174.12l152.71-87.06L31.99,54.2h.01Zm9.49,157.78V70.54l124.07,70.72-124.07,70.72Z"/>
      <path class="cls-1" d="m49.36,82.89v116.75l102.41-58.37-102.41-58.37Zm9.49,100.43v-84.09l73.76,42.04-73.76,42.05Z"/>
      <path class="cls-1" d="m65.95,109.76v63.01l55.27-31.51-55.27-31.51Zm9.49,46.69v-30.35l26.63,15.17-26.63,15.18Z"/>
    </g>
  </g>
</svg>